%TF.GenerationSoftware,KiCad,Pcbnew,5.1.6-c6e7f7d~87~ubuntu18.04.1*%
%TF.CreationDate,2020-10-02T11:44:25-04:00*%
%TF.ProjectId,embedded-debug,656d6265-6464-4656-942d-64656275672e,rev?*%
%TF.SameCoordinates,Original*%
%TF.FileFunction,Paste,Top*%
%TF.FilePolarity,Positive*%
%FSLAX46Y46*%
G04 Gerber Fmt 4.6, Leading zero omitted, Abs format (unit mm)*
G04 Created by KiCad (PCBNEW 5.1.6-c6e7f7d~87~ubuntu18.04.1) date 2020-10-02 11:44:25*
%MOMM*%
%LPD*%
G01*
G04 APERTURE LIST*
%ADD10R,1.000000X1.550000*%
%ADD11R,0.740000X2.400000*%
G04 APERTURE END LIST*
D10*
%TO.C,SW1*%
X182460000Y-71205000D03*
X182460000Y-65955000D03*
X180760000Y-65955000D03*
X180760000Y-71205000D03*
%TD*%
%TO.C,R7*%
G36*
G01*
X166197500Y-85280000D02*
X166542500Y-85280000D01*
G75*
G02*
X166690000Y-85427500I0J-147500D01*
G01*
X166690000Y-85722500D01*
G75*
G02*
X166542500Y-85870000I-147500J0D01*
G01*
X166197500Y-85870000D01*
G75*
G02*
X166050000Y-85722500I0J147500D01*
G01*
X166050000Y-85427500D01*
G75*
G02*
X166197500Y-85280000I147500J0D01*
G01*
G37*
G36*
G01*
X166197500Y-84310000D02*
X166542500Y-84310000D01*
G75*
G02*
X166690000Y-84457500I0J-147500D01*
G01*
X166690000Y-84752500D01*
G75*
G02*
X166542500Y-84900000I-147500J0D01*
G01*
X166197500Y-84900000D01*
G75*
G02*
X166050000Y-84752500I0J147500D01*
G01*
X166050000Y-84457500D01*
G75*
G02*
X166197500Y-84310000I147500J0D01*
G01*
G37*
%TD*%
%TO.C,R6*%
G36*
G01*
X163657500Y-85280000D02*
X164002500Y-85280000D01*
G75*
G02*
X164150000Y-85427500I0J-147500D01*
G01*
X164150000Y-85722500D01*
G75*
G02*
X164002500Y-85870000I-147500J0D01*
G01*
X163657500Y-85870000D01*
G75*
G02*
X163510000Y-85722500I0J147500D01*
G01*
X163510000Y-85427500D01*
G75*
G02*
X163657500Y-85280000I147500J0D01*
G01*
G37*
G36*
G01*
X163657500Y-84310000D02*
X164002500Y-84310000D01*
G75*
G02*
X164150000Y-84457500I0J-147500D01*
G01*
X164150000Y-84752500D01*
G75*
G02*
X164002500Y-84900000I-147500J0D01*
G01*
X163657500Y-84900000D01*
G75*
G02*
X163510000Y-84752500I0J147500D01*
G01*
X163510000Y-84457500D01*
G75*
G02*
X163657500Y-84310000I147500J0D01*
G01*
G37*
%TD*%
D11*
%TO.C,J6*%
X142240000Y-79330000D03*
X142240000Y-83230000D03*
X140970000Y-79330000D03*
X140970000Y-83230000D03*
X139700000Y-79330000D03*
X139700000Y-83230000D03*
X138430000Y-79330000D03*
X138430000Y-83230000D03*
X137160000Y-79330000D03*
X137160000Y-83230000D03*
%TD*%
%TO.C,D4*%
G36*
G01*
X167896250Y-84740000D02*
X167383750Y-84740000D01*
G75*
G02*
X167165000Y-84521250I0J218750D01*
G01*
X167165000Y-84083750D01*
G75*
G02*
X167383750Y-83865000I218750J0D01*
G01*
X167896250Y-83865000D01*
G75*
G02*
X168115000Y-84083750I0J-218750D01*
G01*
X168115000Y-84521250D01*
G75*
G02*
X167896250Y-84740000I-218750J0D01*
G01*
G37*
G36*
G01*
X167896250Y-86315000D02*
X167383750Y-86315000D01*
G75*
G02*
X167165000Y-86096250I0J218750D01*
G01*
X167165000Y-85658750D01*
G75*
G02*
X167383750Y-85440000I218750J0D01*
G01*
X167896250Y-85440000D01*
G75*
G02*
X168115000Y-85658750I0J-218750D01*
G01*
X168115000Y-86096250D01*
G75*
G02*
X167896250Y-86315000I-218750J0D01*
G01*
G37*
%TD*%
%TO.C,D3*%
G36*
G01*
X165356250Y-84740000D02*
X164843750Y-84740000D01*
G75*
G02*
X164625000Y-84521250I0J218750D01*
G01*
X164625000Y-84083750D01*
G75*
G02*
X164843750Y-83865000I218750J0D01*
G01*
X165356250Y-83865000D01*
G75*
G02*
X165575000Y-84083750I0J-218750D01*
G01*
X165575000Y-84521250D01*
G75*
G02*
X165356250Y-84740000I-218750J0D01*
G01*
G37*
G36*
G01*
X165356250Y-86315000D02*
X164843750Y-86315000D01*
G75*
G02*
X164625000Y-86096250I0J218750D01*
G01*
X164625000Y-85658750D01*
G75*
G02*
X164843750Y-85440000I218750J0D01*
G01*
X165356250Y-85440000D01*
G75*
G02*
X165575000Y-85658750I0J-218750D01*
G01*
X165575000Y-86096250D01*
G75*
G02*
X165356250Y-86315000I-218750J0D01*
G01*
G37*
%TD*%
%TO.C,U1*%
G36*
G01*
X170715000Y-76097500D02*
X170715000Y-76522500D01*
G75*
G02*
X170502500Y-76735000I-212500J0D01*
G01*
X170077500Y-76735000D01*
G75*
G02*
X169865000Y-76522500I0J212500D01*
G01*
X169865000Y-76097500D01*
G75*
G02*
X170077500Y-75885000I212500J0D01*
G01*
X170502500Y-75885000D01*
G75*
G02*
X170715000Y-76097500I0J-212500D01*
G01*
G37*
G36*
G01*
X170715000Y-77147500D02*
X170715000Y-77572500D01*
G75*
G02*
X170502500Y-77785000I-212500J0D01*
G01*
X170077500Y-77785000D01*
G75*
G02*
X169865000Y-77572500I0J212500D01*
G01*
X169865000Y-77147500D01*
G75*
G02*
X170077500Y-76935000I212500J0D01*
G01*
X170502500Y-76935000D01*
G75*
G02*
X170715000Y-77147500I0J-212500D01*
G01*
G37*
G36*
G01*
X171765000Y-76097500D02*
X171765000Y-76522500D01*
G75*
G02*
X171552500Y-76735000I-212500J0D01*
G01*
X171127500Y-76735000D01*
G75*
G02*
X170915000Y-76522500I0J212500D01*
G01*
X170915000Y-76097500D01*
G75*
G02*
X171127500Y-75885000I212500J0D01*
G01*
X171552500Y-75885000D01*
G75*
G02*
X171765000Y-76097500I0J-212500D01*
G01*
G37*
G36*
G01*
X171765000Y-77147500D02*
X171765000Y-77572500D01*
G75*
G02*
X171552500Y-77785000I-212500J0D01*
G01*
X171127500Y-77785000D01*
G75*
G02*
X170915000Y-77572500I0J212500D01*
G01*
X170915000Y-77147500D01*
G75*
G02*
X171127500Y-76935000I212500J0D01*
G01*
X171552500Y-76935000D01*
G75*
G02*
X171765000Y-77147500I0J-212500D01*
G01*
G37*
G36*
G01*
X171940000Y-78435000D02*
X171940000Y-79135000D01*
G75*
G02*
X171865000Y-79210000I-75000J0D01*
G01*
X171715000Y-79210000D01*
G75*
G02*
X171640000Y-79135000I0J75000D01*
G01*
X171640000Y-78435000D01*
G75*
G02*
X171715000Y-78360000I75000J0D01*
G01*
X171865000Y-78360000D01*
G75*
G02*
X171940000Y-78435000I0J-75000D01*
G01*
G37*
G36*
G01*
X171290000Y-78435000D02*
X171290000Y-79135000D01*
G75*
G02*
X171215000Y-79210000I-75000J0D01*
G01*
X171065000Y-79210000D01*
G75*
G02*
X170990000Y-79135000I0J75000D01*
G01*
X170990000Y-78435000D01*
G75*
G02*
X171065000Y-78360000I75000J0D01*
G01*
X171215000Y-78360000D01*
G75*
G02*
X171290000Y-78435000I0J-75000D01*
G01*
G37*
G36*
G01*
X170640000Y-78435000D02*
X170640000Y-79135000D01*
G75*
G02*
X170565000Y-79210000I-75000J0D01*
G01*
X170415000Y-79210000D01*
G75*
G02*
X170340000Y-79135000I0J75000D01*
G01*
X170340000Y-78435000D01*
G75*
G02*
X170415000Y-78360000I75000J0D01*
G01*
X170565000Y-78360000D01*
G75*
G02*
X170640000Y-78435000I0J-75000D01*
G01*
G37*
G36*
G01*
X169990000Y-78435000D02*
X169990000Y-79135000D01*
G75*
G02*
X169915000Y-79210000I-75000J0D01*
G01*
X169765000Y-79210000D01*
G75*
G02*
X169690000Y-79135000I0J75000D01*
G01*
X169690000Y-78435000D01*
G75*
G02*
X169765000Y-78360000I75000J0D01*
G01*
X169915000Y-78360000D01*
G75*
G02*
X169990000Y-78435000I0J-75000D01*
G01*
G37*
G36*
G01*
X169290000Y-77735000D02*
X169290000Y-77885000D01*
G75*
G02*
X169215000Y-77960000I-75000J0D01*
G01*
X168515000Y-77960000D01*
G75*
G02*
X168440000Y-77885000I0J75000D01*
G01*
X168440000Y-77735000D01*
G75*
G02*
X168515000Y-77660000I75000J0D01*
G01*
X169215000Y-77660000D01*
G75*
G02*
X169290000Y-77735000I0J-75000D01*
G01*
G37*
G36*
G01*
X169290000Y-77085000D02*
X169290000Y-77235000D01*
G75*
G02*
X169215000Y-77310000I-75000J0D01*
G01*
X168515000Y-77310000D01*
G75*
G02*
X168440000Y-77235000I0J75000D01*
G01*
X168440000Y-77085000D01*
G75*
G02*
X168515000Y-77010000I75000J0D01*
G01*
X169215000Y-77010000D01*
G75*
G02*
X169290000Y-77085000I0J-75000D01*
G01*
G37*
G36*
G01*
X169290000Y-76435000D02*
X169290000Y-76585000D01*
G75*
G02*
X169215000Y-76660000I-75000J0D01*
G01*
X168515000Y-76660000D01*
G75*
G02*
X168440000Y-76585000I0J75000D01*
G01*
X168440000Y-76435000D01*
G75*
G02*
X168515000Y-76360000I75000J0D01*
G01*
X169215000Y-76360000D01*
G75*
G02*
X169290000Y-76435000I0J-75000D01*
G01*
G37*
G36*
G01*
X169290000Y-75785000D02*
X169290000Y-75935000D01*
G75*
G02*
X169215000Y-76010000I-75000J0D01*
G01*
X168515000Y-76010000D01*
G75*
G02*
X168440000Y-75935000I0J75000D01*
G01*
X168440000Y-75785000D01*
G75*
G02*
X168515000Y-75710000I75000J0D01*
G01*
X169215000Y-75710000D01*
G75*
G02*
X169290000Y-75785000I0J-75000D01*
G01*
G37*
G36*
G01*
X169990000Y-74535000D02*
X169990000Y-75235000D01*
G75*
G02*
X169915000Y-75310000I-75000J0D01*
G01*
X169765000Y-75310000D01*
G75*
G02*
X169690000Y-75235000I0J75000D01*
G01*
X169690000Y-74535000D01*
G75*
G02*
X169765000Y-74460000I75000J0D01*
G01*
X169915000Y-74460000D01*
G75*
G02*
X169990000Y-74535000I0J-75000D01*
G01*
G37*
G36*
G01*
X170640000Y-74535000D02*
X170640000Y-75235000D01*
G75*
G02*
X170565000Y-75310000I-75000J0D01*
G01*
X170415000Y-75310000D01*
G75*
G02*
X170340000Y-75235000I0J75000D01*
G01*
X170340000Y-74535000D01*
G75*
G02*
X170415000Y-74460000I75000J0D01*
G01*
X170565000Y-74460000D01*
G75*
G02*
X170640000Y-74535000I0J-75000D01*
G01*
G37*
G36*
G01*
X171290000Y-74535000D02*
X171290000Y-75235000D01*
G75*
G02*
X171215000Y-75310000I-75000J0D01*
G01*
X171065000Y-75310000D01*
G75*
G02*
X170990000Y-75235000I0J75000D01*
G01*
X170990000Y-74535000D01*
G75*
G02*
X171065000Y-74460000I75000J0D01*
G01*
X171215000Y-74460000D01*
G75*
G02*
X171290000Y-74535000I0J-75000D01*
G01*
G37*
G36*
G01*
X171940000Y-74535000D02*
X171940000Y-75235000D01*
G75*
G02*
X171865000Y-75310000I-75000J0D01*
G01*
X171715000Y-75310000D01*
G75*
G02*
X171640000Y-75235000I0J75000D01*
G01*
X171640000Y-74535000D01*
G75*
G02*
X171715000Y-74460000I75000J0D01*
G01*
X171865000Y-74460000D01*
G75*
G02*
X171940000Y-74535000I0J-75000D01*
G01*
G37*
G36*
G01*
X173190000Y-75785000D02*
X173190000Y-75935000D01*
G75*
G02*
X173115000Y-76010000I-75000J0D01*
G01*
X172415000Y-76010000D01*
G75*
G02*
X172340000Y-75935000I0J75000D01*
G01*
X172340000Y-75785000D01*
G75*
G02*
X172415000Y-75710000I75000J0D01*
G01*
X173115000Y-75710000D01*
G75*
G02*
X173190000Y-75785000I0J-75000D01*
G01*
G37*
G36*
G01*
X173190000Y-76435000D02*
X173190000Y-76585000D01*
G75*
G02*
X173115000Y-76660000I-75000J0D01*
G01*
X172415000Y-76660000D01*
G75*
G02*
X172340000Y-76585000I0J75000D01*
G01*
X172340000Y-76435000D01*
G75*
G02*
X172415000Y-76360000I75000J0D01*
G01*
X173115000Y-76360000D01*
G75*
G02*
X173190000Y-76435000I0J-75000D01*
G01*
G37*
G36*
G01*
X173190000Y-77085000D02*
X173190000Y-77235000D01*
G75*
G02*
X173115000Y-77310000I-75000J0D01*
G01*
X172415000Y-77310000D01*
G75*
G02*
X172340000Y-77235000I0J75000D01*
G01*
X172340000Y-77085000D01*
G75*
G02*
X172415000Y-77010000I75000J0D01*
G01*
X173115000Y-77010000D01*
G75*
G02*
X173190000Y-77085000I0J-75000D01*
G01*
G37*
G36*
G01*
X173190000Y-77735000D02*
X173190000Y-77885000D01*
G75*
G02*
X173115000Y-77960000I-75000J0D01*
G01*
X172415000Y-77960000D01*
G75*
G02*
X172340000Y-77885000I0J75000D01*
G01*
X172340000Y-77735000D01*
G75*
G02*
X172415000Y-77660000I75000J0D01*
G01*
X173115000Y-77660000D01*
G75*
G02*
X173190000Y-77735000I0J-75000D01*
G01*
G37*
%TD*%
%TO.C,R5*%
G36*
G01*
X168737500Y-85280000D02*
X169082500Y-85280000D01*
G75*
G02*
X169230000Y-85427500I0J-147500D01*
G01*
X169230000Y-85722500D01*
G75*
G02*
X169082500Y-85870000I-147500J0D01*
G01*
X168737500Y-85870000D01*
G75*
G02*
X168590000Y-85722500I0J147500D01*
G01*
X168590000Y-85427500D01*
G75*
G02*
X168737500Y-85280000I147500J0D01*
G01*
G37*
G36*
G01*
X168737500Y-84310000D02*
X169082500Y-84310000D01*
G75*
G02*
X169230000Y-84457500I0J-147500D01*
G01*
X169230000Y-84752500D01*
G75*
G02*
X169082500Y-84900000I-147500J0D01*
G01*
X168737500Y-84900000D01*
G75*
G02*
X168590000Y-84752500I0J147500D01*
G01*
X168590000Y-84457500D01*
G75*
G02*
X168737500Y-84310000I147500J0D01*
G01*
G37*
%TD*%
%TO.C,R4*%
G36*
G01*
X171277500Y-85280000D02*
X171622500Y-85280000D01*
G75*
G02*
X171770000Y-85427500I0J-147500D01*
G01*
X171770000Y-85722500D01*
G75*
G02*
X171622500Y-85870000I-147500J0D01*
G01*
X171277500Y-85870000D01*
G75*
G02*
X171130000Y-85722500I0J147500D01*
G01*
X171130000Y-85427500D01*
G75*
G02*
X171277500Y-85280000I147500J0D01*
G01*
G37*
G36*
G01*
X171277500Y-84310000D02*
X171622500Y-84310000D01*
G75*
G02*
X171770000Y-84457500I0J-147500D01*
G01*
X171770000Y-84752500D01*
G75*
G02*
X171622500Y-84900000I-147500J0D01*
G01*
X171277500Y-84900000D01*
G75*
G02*
X171130000Y-84752500I0J147500D01*
G01*
X171130000Y-84457500D01*
G75*
G02*
X171277500Y-84310000I147500J0D01*
G01*
G37*
%TD*%
%TO.C,R3*%
G36*
G01*
X181800000Y-64307500D02*
X181800000Y-63962500D01*
G75*
G02*
X181947500Y-63815000I147500J0D01*
G01*
X182242500Y-63815000D01*
G75*
G02*
X182390000Y-63962500I0J-147500D01*
G01*
X182390000Y-64307500D01*
G75*
G02*
X182242500Y-64455000I-147500J0D01*
G01*
X181947500Y-64455000D01*
G75*
G02*
X181800000Y-64307500I0J147500D01*
G01*
G37*
G36*
G01*
X180830000Y-64307500D02*
X180830000Y-63962500D01*
G75*
G02*
X180977500Y-63815000I147500J0D01*
G01*
X181272500Y-63815000D01*
G75*
G02*
X181420000Y-63962500I0J-147500D01*
G01*
X181420000Y-64307500D01*
G75*
G02*
X181272500Y-64455000I-147500J0D01*
G01*
X180977500Y-64455000D01*
G75*
G02*
X180830000Y-64307500I0J147500D01*
G01*
G37*
%TD*%
%TO.C,R2*%
G36*
G01*
X170007500Y-73215000D02*
X170352500Y-73215000D01*
G75*
G02*
X170500000Y-73362500I0J-147500D01*
G01*
X170500000Y-73657500D01*
G75*
G02*
X170352500Y-73805000I-147500J0D01*
G01*
X170007500Y-73805000D01*
G75*
G02*
X169860000Y-73657500I0J147500D01*
G01*
X169860000Y-73362500D01*
G75*
G02*
X170007500Y-73215000I147500J0D01*
G01*
G37*
G36*
G01*
X170007500Y-72245000D02*
X170352500Y-72245000D01*
G75*
G02*
X170500000Y-72392500I0J-147500D01*
G01*
X170500000Y-72687500D01*
G75*
G02*
X170352500Y-72835000I-147500J0D01*
G01*
X170007500Y-72835000D01*
G75*
G02*
X169860000Y-72687500I0J147500D01*
G01*
X169860000Y-72392500D01*
G75*
G02*
X170007500Y-72245000I147500J0D01*
G01*
G37*
%TD*%
%TO.C,R1*%
G36*
G01*
X168737500Y-73215000D02*
X169082500Y-73215000D01*
G75*
G02*
X169230000Y-73362500I0J-147500D01*
G01*
X169230000Y-73657500D01*
G75*
G02*
X169082500Y-73805000I-147500J0D01*
G01*
X168737500Y-73805000D01*
G75*
G02*
X168590000Y-73657500I0J147500D01*
G01*
X168590000Y-73362500D01*
G75*
G02*
X168737500Y-73215000I147500J0D01*
G01*
G37*
G36*
G01*
X168737500Y-72245000D02*
X169082500Y-72245000D01*
G75*
G02*
X169230000Y-72392500I0J-147500D01*
G01*
X169230000Y-72687500D01*
G75*
G02*
X169082500Y-72835000I-147500J0D01*
G01*
X168737500Y-72835000D01*
G75*
G02*
X168590000Y-72687500I0J147500D01*
G01*
X168590000Y-72392500D01*
G75*
G02*
X168737500Y-72245000I147500J0D01*
G01*
G37*
%TD*%
%TO.C,J2*%
X158750000Y-79330000D03*
X158750000Y-83230000D03*
X157480000Y-79330000D03*
X157480000Y-83230000D03*
X156210000Y-79330000D03*
X156210000Y-83230000D03*
X154940000Y-79330000D03*
X154940000Y-83230000D03*
X153670000Y-79330000D03*
X153670000Y-83230000D03*
%TD*%
%TO.C,J1*%
X158750000Y-68535000D03*
X158750000Y-72435000D03*
X157480000Y-68535000D03*
X157480000Y-72435000D03*
X156210000Y-68535000D03*
X156210000Y-72435000D03*
X154940000Y-68535000D03*
X154940000Y-72435000D03*
X153670000Y-68535000D03*
X153670000Y-72435000D03*
%TD*%
%TO.C,D2*%
G36*
G01*
X170436250Y-84740000D02*
X169923750Y-84740000D01*
G75*
G02*
X169705000Y-84521250I0J218750D01*
G01*
X169705000Y-84083750D01*
G75*
G02*
X169923750Y-83865000I218750J0D01*
G01*
X170436250Y-83865000D01*
G75*
G02*
X170655000Y-84083750I0J-218750D01*
G01*
X170655000Y-84521250D01*
G75*
G02*
X170436250Y-84740000I-218750J0D01*
G01*
G37*
G36*
G01*
X170436250Y-86315000D02*
X169923750Y-86315000D01*
G75*
G02*
X169705000Y-86096250I0J218750D01*
G01*
X169705000Y-85658750D01*
G75*
G02*
X169923750Y-85440000I218750J0D01*
G01*
X170436250Y-85440000D01*
G75*
G02*
X170655000Y-85658750I0J-218750D01*
G01*
X170655000Y-86096250D01*
G75*
G02*
X170436250Y-86315000I-218750J0D01*
G01*
G37*
%TD*%
%TO.C,D1*%
G36*
G01*
X172976250Y-84740000D02*
X172463750Y-84740000D01*
G75*
G02*
X172245000Y-84521250I0J218750D01*
G01*
X172245000Y-84083750D01*
G75*
G02*
X172463750Y-83865000I218750J0D01*
G01*
X172976250Y-83865000D01*
G75*
G02*
X173195000Y-84083750I0J-218750D01*
G01*
X173195000Y-84521250D01*
G75*
G02*
X172976250Y-84740000I-218750J0D01*
G01*
G37*
G36*
G01*
X172976250Y-86315000D02*
X172463750Y-86315000D01*
G75*
G02*
X172245000Y-86096250I0J218750D01*
G01*
X172245000Y-85658750D01*
G75*
G02*
X172463750Y-85440000I218750J0D01*
G01*
X172976250Y-85440000D01*
G75*
G02*
X173195000Y-85658750I0J-218750D01*
G01*
X173195000Y-86096250D01*
G75*
G02*
X172976250Y-86315000I-218750J0D01*
G01*
G37*
%TD*%
%TO.C,C2*%
G36*
G01*
X167177500Y-74740000D02*
X166832500Y-74740000D01*
G75*
G02*
X166685000Y-74592500I0J147500D01*
G01*
X166685000Y-74297500D01*
G75*
G02*
X166832500Y-74150000I147500J0D01*
G01*
X167177500Y-74150000D01*
G75*
G02*
X167325000Y-74297500I0J-147500D01*
G01*
X167325000Y-74592500D01*
G75*
G02*
X167177500Y-74740000I-147500J0D01*
G01*
G37*
G36*
G01*
X167177500Y-75710000D02*
X166832500Y-75710000D01*
G75*
G02*
X166685000Y-75562500I0J147500D01*
G01*
X166685000Y-75267500D01*
G75*
G02*
X166832500Y-75120000I147500J0D01*
G01*
X167177500Y-75120000D01*
G75*
G02*
X167325000Y-75267500I0J-147500D01*
G01*
X167325000Y-75562500D01*
G75*
G02*
X167177500Y-75710000I-147500J0D01*
G01*
G37*
%TD*%
%TO.C,C1*%
G36*
G01*
X166832500Y-77025000D02*
X167177500Y-77025000D01*
G75*
G02*
X167325000Y-77172500I0J-147500D01*
G01*
X167325000Y-77467500D01*
G75*
G02*
X167177500Y-77615000I-147500J0D01*
G01*
X166832500Y-77615000D01*
G75*
G02*
X166685000Y-77467500I0J147500D01*
G01*
X166685000Y-77172500D01*
G75*
G02*
X166832500Y-77025000I147500J0D01*
G01*
G37*
G36*
G01*
X166832500Y-76055000D02*
X167177500Y-76055000D01*
G75*
G02*
X167325000Y-76202500I0J-147500D01*
G01*
X167325000Y-76497500D01*
G75*
G02*
X167177500Y-76645000I-147500J0D01*
G01*
X166832500Y-76645000D01*
G75*
G02*
X166685000Y-76497500I0J147500D01*
G01*
X166685000Y-76202500D01*
G75*
G02*
X166832500Y-76055000I147500J0D01*
G01*
G37*
%TD*%
M02*
