M48
; DRILL file {KiCad 5.1.6-c6e7f7d~87~ubuntu18.04.1} date Fri Oct  2 11:44:23 2020
; FORMAT={-:-/ absolute / inch / decimal}
; #@! TF.CreationDate,2020-10-02T11:44:23-04:00
; #@! TF.GenerationSoftware,Kicad,Pcbnew,5.1.6-c6e7f7d~87~ubuntu18.04.1
; #@! TF.FileFunction,Plated,1,2,PTH
FMAT,2
INCH
T1C0.0157
T2C0.0236
T3C0.0394
%
G90
G05
T1
X5.4Y-2.575
X5.4Y-2.925
X5.4Y-3.1
X5.4Y-3.2768
X5.45Y-3.05
X5.5177Y-2.875
X5.55Y-3.2
X5.6Y-2.575
X5.6Y-2.925
X5.8Y-2.575
X5.8Y-3.1
X6.0Y-2.575
X6.0Y-2.85
X6.0Y-3.2
X6.05Y-2.775
X6.05Y-3.2
X6.1Y-2.775
X6.1Y-3.2
X6.15Y-3.025
X6.15Y-3.2
X6.1508Y-2.9012
X6.2Y-2.575
X6.2Y-3.35
X6.25Y-2.775
X6.25Y-3.2
X6.3Y-3.275
X6.425Y-2.575
X6.45Y-3.2465
X6.5327Y-3.2423
X6.5834Y-3.1007
X6.6Y-2.9
X6.625Y-2.95
X6.7Y-3.2465
X6.725Y-3.025
X6.8Y-2.95
X6.85Y-3.075
X6.8632Y-3.1521
X6.975Y-2.575
X6.975Y-2.75
X6.975Y-2.9
X6.975Y-3.125
X7.15Y-2.9
X7.15Y-3.125
X7.15Y-3.3
X7.175Y-2.7
X6.5657Y-2.7469
X6.5657Y-2.8
X6.5992Y-2.7469
X6.5992Y-2.8
X6.6327Y-2.7469
X6.6327Y-2.8
X6.6661Y-2.7469
X6.6661Y-2.8
X6.6996Y-2.7469
X6.6996Y-2.8
X6.7331Y-2.7469
X6.7331Y-2.8
X6.7665Y-2.7469
X6.7665Y-2.8
X6.8Y-2.7469
X6.8Y-2.8
T3
X7.05Y-3.025
X7.15Y-3.025
X5.4Y-2.7
X5.4Y-2.8
X5.5Y-2.7
X5.5Y-2.8
X5.6Y-2.7
X5.6Y-2.8
T2
G00X6.5126Y-2.6441
M15
G01X6.5126Y-2.6126
M16
G05
G00X6.5126Y-2.7909
M15
G01X6.5126Y-2.7319
M16
G05
G00X6.8531Y-2.6441
M15
G01X6.8531Y-2.6126
M16
G05
G00X6.8531Y-2.7909
M15
G01X6.8531Y-2.7319
M16
G05
T0
M30
