%TF.GenerationSoftware,KiCad,Pcbnew,5.1.6-c6e7f7d~87~ubuntu18.04.1*%
%TF.CreationDate,2020-10-02T11:44:25-04:00*%
%TF.ProjectId,embedded-debug,656d6265-6464-4656-942d-64656275672e,rev?*%
%TF.SameCoordinates,Original*%
%TF.FileFunction,Copper,L1,Top*%
%TF.FilePolarity,Positive*%
%FSLAX46Y46*%
G04 Gerber Fmt 4.6, Leading zero omitted, Abs format (unit mm)*
G04 Created by KiCad (PCBNEW 5.1.6-c6e7f7d~87~ubuntu18.04.1) date 2020-10-02 11:44:25*
%MOMM*%
%LPD*%
G01*
G04 APERTURE LIST*
%TA.AperFunction,ComponentPad*%
%ADD10O,1.700000X1.700000*%
%TD*%
%TA.AperFunction,ComponentPad*%
%ADD11R,1.700000X1.700000*%
%TD*%
%TA.AperFunction,SMDPad,CuDef*%
%ADD12R,1.000000X1.550000*%
%TD*%
%TA.AperFunction,SMDPad,CuDef*%
%ADD13R,0.740000X2.400000*%
%TD*%
%TA.AperFunction,SMDPad,CuDef*%
%ADD14R,2.100000X2.100000*%
%TD*%
%TA.AperFunction,ComponentPad*%
%ADD15O,0.900000X1.700000*%
%TD*%
%TA.AperFunction,ComponentPad*%
%ADD16O,0.900000X2.400000*%
%TD*%
%TA.AperFunction,ComponentPad*%
%ADD17C,0.700000*%
%TD*%
%TA.AperFunction,ViaPad*%
%ADD18C,0.800000*%
%TD*%
%TA.AperFunction,Conductor*%
%ADD19C,0.250000*%
%TD*%
%TA.AperFunction,Conductor*%
%ADD20C,0.254000*%
%TD*%
G04 APERTURE END LIST*
D10*
%TO.P,J5,6*%
%TO.N,GND*%
X142240000Y-68580000D03*
%TO.P,J5,5*%
%TO.N,~RESET*%
X142240000Y-71120000D03*
%TO.P,J5,4*%
%TO.N,MOSI*%
X139700000Y-68580000D03*
%TO.P,J5,3*%
%TO.N,SCK*%
X139700000Y-71120000D03*
%TO.P,J5,2*%
%TO.N,VCC*%
X137160000Y-68580000D03*
D11*
%TO.P,J5,1*%
%TO.N,MISO*%
X137160000Y-71120000D03*
%TD*%
D12*
%TO.P,SW1,1*%
%TO.N,~RESET*%
X182460000Y-71205000D03*
X182460000Y-65955000D03*
%TO.P,SW1,2*%
%TO.N,GND*%
X180760000Y-65955000D03*
X180760000Y-71205000D03*
%TD*%
%TO.P,R7,2*%
%TO.N,Net-(D4-Pad2)*%
%TA.AperFunction,SMDPad,CuDef*%
G36*
G01*
X166197500Y-85280000D02*
X166542500Y-85280000D01*
G75*
G02*
X166690000Y-85427500I0J-147500D01*
G01*
X166690000Y-85722500D01*
G75*
G02*
X166542500Y-85870000I-147500J0D01*
G01*
X166197500Y-85870000D01*
G75*
G02*
X166050000Y-85722500I0J147500D01*
G01*
X166050000Y-85427500D01*
G75*
G02*
X166197500Y-85280000I147500J0D01*
G01*
G37*
%TD.AperFunction*%
%TO.P,R7,1*%
%TO.N,VCC*%
%TA.AperFunction,SMDPad,CuDef*%
G36*
G01*
X166197500Y-84310000D02*
X166542500Y-84310000D01*
G75*
G02*
X166690000Y-84457500I0J-147500D01*
G01*
X166690000Y-84752500D01*
G75*
G02*
X166542500Y-84900000I-147500J0D01*
G01*
X166197500Y-84900000D01*
G75*
G02*
X166050000Y-84752500I0J147500D01*
G01*
X166050000Y-84457500D01*
G75*
G02*
X166197500Y-84310000I147500J0D01*
G01*
G37*
%TD.AperFunction*%
%TD*%
%TO.P,R6,2*%
%TO.N,Net-(D3-Pad2)*%
%TA.AperFunction,SMDPad,CuDef*%
G36*
G01*
X163657500Y-85280000D02*
X164002500Y-85280000D01*
G75*
G02*
X164150000Y-85427500I0J-147500D01*
G01*
X164150000Y-85722500D01*
G75*
G02*
X164002500Y-85870000I-147500J0D01*
G01*
X163657500Y-85870000D01*
G75*
G02*
X163510000Y-85722500I0J147500D01*
G01*
X163510000Y-85427500D01*
G75*
G02*
X163657500Y-85280000I147500J0D01*
G01*
G37*
%TD.AperFunction*%
%TO.P,R6,1*%
%TO.N,+5V*%
%TA.AperFunction,SMDPad,CuDef*%
G36*
G01*
X163657500Y-84310000D02*
X164002500Y-84310000D01*
G75*
G02*
X164150000Y-84457500I0J-147500D01*
G01*
X164150000Y-84752500D01*
G75*
G02*
X164002500Y-84900000I-147500J0D01*
G01*
X163657500Y-84900000D01*
G75*
G02*
X163510000Y-84752500I0J147500D01*
G01*
X163510000Y-84457500D01*
G75*
G02*
X163657500Y-84310000I147500J0D01*
G01*
G37*
%TD.AperFunction*%
%TD*%
D13*
%TO.P,J6,10*%
%TO.N,Net-(J6-Pad10)*%
X142240000Y-79330000D03*
%TO.P,J6,9*%
%TO.N,MOSI*%
X142240000Y-83230000D03*
%TO.P,J6,8*%
%TO.N,Net-(J6-Pad8)*%
X140970000Y-79330000D03*
%TO.P,J6,7*%
%TO.N,UART_TX*%
X140970000Y-83230000D03*
%TO.P,J6,6*%
%TO.N,~RESET*%
X139700000Y-79330000D03*
%TO.P,J6,5*%
%TO.N,UART_RX*%
X139700000Y-83230000D03*
%TO.P,J6,4*%
%TO.N,VCC*%
X138430000Y-79330000D03*
%TO.P,J6,3*%
%TO.N,MISO*%
X138430000Y-83230000D03*
%TO.P,J6,2*%
%TO.N,GND*%
X137160000Y-79330000D03*
%TO.P,J6,1*%
%TO.N,SCK*%
X137160000Y-83230000D03*
%TD*%
%TO.P,D4,2*%
%TO.N,Net-(D4-Pad2)*%
%TA.AperFunction,SMDPad,CuDef*%
G36*
G01*
X167896250Y-84740000D02*
X167383750Y-84740000D01*
G75*
G02*
X167165000Y-84521250I0J218750D01*
G01*
X167165000Y-84083750D01*
G75*
G02*
X167383750Y-83865000I218750J0D01*
G01*
X167896250Y-83865000D01*
G75*
G02*
X168115000Y-84083750I0J-218750D01*
G01*
X168115000Y-84521250D01*
G75*
G02*
X167896250Y-84740000I-218750J0D01*
G01*
G37*
%TD.AperFunction*%
%TO.P,D4,1*%
%TO.N,GND*%
%TA.AperFunction,SMDPad,CuDef*%
G36*
G01*
X167896250Y-86315000D02*
X167383750Y-86315000D01*
G75*
G02*
X167165000Y-86096250I0J218750D01*
G01*
X167165000Y-85658750D01*
G75*
G02*
X167383750Y-85440000I218750J0D01*
G01*
X167896250Y-85440000D01*
G75*
G02*
X168115000Y-85658750I0J-218750D01*
G01*
X168115000Y-86096250D01*
G75*
G02*
X167896250Y-86315000I-218750J0D01*
G01*
G37*
%TD.AperFunction*%
%TD*%
%TO.P,D3,2*%
%TO.N,Net-(D3-Pad2)*%
%TA.AperFunction,SMDPad,CuDef*%
G36*
G01*
X165356250Y-84740000D02*
X164843750Y-84740000D01*
G75*
G02*
X164625000Y-84521250I0J218750D01*
G01*
X164625000Y-84083750D01*
G75*
G02*
X164843750Y-83865000I218750J0D01*
G01*
X165356250Y-83865000D01*
G75*
G02*
X165575000Y-84083750I0J-218750D01*
G01*
X165575000Y-84521250D01*
G75*
G02*
X165356250Y-84740000I-218750J0D01*
G01*
G37*
%TD.AperFunction*%
%TO.P,D3,1*%
%TO.N,GND*%
%TA.AperFunction,SMDPad,CuDef*%
G36*
G01*
X165356250Y-86315000D02*
X164843750Y-86315000D01*
G75*
G02*
X164625000Y-86096250I0J218750D01*
G01*
X164625000Y-85658750D01*
G75*
G02*
X164843750Y-85440000I218750J0D01*
G01*
X165356250Y-85440000D01*
G75*
G02*
X165575000Y-85658750I0J-218750D01*
G01*
X165575000Y-86096250D01*
G75*
G02*
X165356250Y-86315000I-218750J0D01*
G01*
G37*
%TD.AperFunction*%
%TD*%
D14*
%TO.P,U1,17*%
%TO.N,GND*%
X170815000Y-76835000D03*
%TO.P,U1,16*%
%TO.N,Net-(U1-Pad16)*%
%TA.AperFunction,SMDPad,CuDef*%
G36*
G01*
X171940000Y-78435000D02*
X171940000Y-79135000D01*
G75*
G02*
X171865000Y-79210000I-75000J0D01*
G01*
X171715000Y-79210000D01*
G75*
G02*
X171640000Y-79135000I0J75000D01*
G01*
X171640000Y-78435000D01*
G75*
G02*
X171715000Y-78360000I75000J0D01*
G01*
X171865000Y-78360000D01*
G75*
G02*
X171940000Y-78435000I0J-75000D01*
G01*
G37*
%TD.AperFunction*%
%TO.P,U1,15*%
%TO.N,UART_RX*%
%TA.AperFunction,SMDPad,CuDef*%
G36*
G01*
X171290000Y-78435000D02*
X171290000Y-79135000D01*
G75*
G02*
X171215000Y-79210000I-75000J0D01*
G01*
X171065000Y-79210000D01*
G75*
G02*
X170990000Y-79135000I0J75000D01*
G01*
X170990000Y-78435000D01*
G75*
G02*
X171065000Y-78360000I75000J0D01*
G01*
X171215000Y-78360000D01*
G75*
G02*
X171290000Y-78435000I0J-75000D01*
G01*
G37*
%TD.AperFunction*%
%TO.P,U1,14*%
%TO.N,Net-(U1-Pad14)*%
%TA.AperFunction,SMDPad,CuDef*%
G36*
G01*
X170640000Y-78435000D02*
X170640000Y-79135000D01*
G75*
G02*
X170565000Y-79210000I-75000J0D01*
G01*
X170415000Y-79210000D01*
G75*
G02*
X170340000Y-79135000I0J75000D01*
G01*
X170340000Y-78435000D01*
G75*
G02*
X170415000Y-78360000I75000J0D01*
G01*
X170565000Y-78360000D01*
G75*
G02*
X170640000Y-78435000I0J-75000D01*
G01*
G37*
%TD.AperFunction*%
%TO.P,U1,13*%
%TO.N,GND*%
%TA.AperFunction,SMDPad,CuDef*%
G36*
G01*
X169990000Y-78435000D02*
X169990000Y-79135000D01*
G75*
G02*
X169915000Y-79210000I-75000J0D01*
G01*
X169765000Y-79210000D01*
G75*
G02*
X169690000Y-79135000I0J75000D01*
G01*
X169690000Y-78435000D01*
G75*
G02*
X169765000Y-78360000I75000J0D01*
G01*
X169915000Y-78360000D01*
G75*
G02*
X169990000Y-78435000I0J-75000D01*
G01*
G37*
%TD.AperFunction*%
%TO.P,U1,12*%
%TO.N,Net-(U1-Pad12)*%
%TA.AperFunction,SMDPad,CuDef*%
G36*
G01*
X169290000Y-77735000D02*
X169290000Y-77885000D01*
G75*
G02*
X169215000Y-77960000I-75000J0D01*
G01*
X168515000Y-77960000D01*
G75*
G02*
X168440000Y-77885000I0J75000D01*
G01*
X168440000Y-77735000D01*
G75*
G02*
X168515000Y-77660000I75000J0D01*
G01*
X169215000Y-77660000D01*
G75*
G02*
X169290000Y-77735000I0J-75000D01*
G01*
G37*
%TD.AperFunction*%
%TO.P,U1,11*%
%TO.N,~RX_LED*%
%TA.AperFunction,SMDPad,CuDef*%
G36*
G01*
X169290000Y-77085000D02*
X169290000Y-77235000D01*
G75*
G02*
X169215000Y-77310000I-75000J0D01*
G01*
X168515000Y-77310000D01*
G75*
G02*
X168440000Y-77235000I0J75000D01*
G01*
X168440000Y-77085000D01*
G75*
G02*
X168515000Y-77010000I75000J0D01*
G01*
X169215000Y-77010000D01*
G75*
G02*
X169290000Y-77085000I0J-75000D01*
G01*
G37*
%TD.AperFunction*%
%TO.P,U1,10*%
%TO.N,+5V*%
%TA.AperFunction,SMDPad,CuDef*%
G36*
G01*
X169290000Y-76435000D02*
X169290000Y-76585000D01*
G75*
G02*
X169215000Y-76660000I-75000J0D01*
G01*
X168515000Y-76660000D01*
G75*
G02*
X168440000Y-76585000I0J75000D01*
G01*
X168440000Y-76435000D01*
G75*
G02*
X168515000Y-76360000I75000J0D01*
G01*
X169215000Y-76360000D01*
G75*
G02*
X169290000Y-76435000I0J-75000D01*
G01*
G37*
%TD.AperFunction*%
%TO.P,U1,9*%
%TO.N,+3V3*%
%TA.AperFunction,SMDPad,CuDef*%
G36*
G01*
X169290000Y-75785000D02*
X169290000Y-75935000D01*
G75*
G02*
X169215000Y-76010000I-75000J0D01*
G01*
X168515000Y-76010000D01*
G75*
G02*
X168440000Y-75935000I0J75000D01*
G01*
X168440000Y-75785000D01*
G75*
G02*
X168515000Y-75710000I75000J0D01*
G01*
X169215000Y-75710000D01*
G75*
G02*
X169290000Y-75785000I0J-75000D01*
G01*
G37*
%TD.AperFunction*%
%TO.P,U1,8*%
%TA.AperFunction,SMDPad,CuDef*%
G36*
G01*
X169990000Y-74535000D02*
X169990000Y-75235000D01*
G75*
G02*
X169915000Y-75310000I-75000J0D01*
G01*
X169765000Y-75310000D01*
G75*
G02*
X169690000Y-75235000I0J75000D01*
G01*
X169690000Y-74535000D01*
G75*
G02*
X169765000Y-74460000I75000J0D01*
G01*
X169915000Y-74460000D01*
G75*
G02*
X169990000Y-74535000I0J-75000D01*
G01*
G37*
%TD.AperFunction*%
%TO.P,U1,7*%
%TO.N,Net-(R1-Pad2)*%
%TA.AperFunction,SMDPad,CuDef*%
G36*
G01*
X170640000Y-74535000D02*
X170640000Y-75235000D01*
G75*
G02*
X170565000Y-75310000I-75000J0D01*
G01*
X170415000Y-75310000D01*
G75*
G02*
X170340000Y-75235000I0J75000D01*
G01*
X170340000Y-74535000D01*
G75*
G02*
X170415000Y-74460000I75000J0D01*
G01*
X170565000Y-74460000D01*
G75*
G02*
X170640000Y-74535000I0J-75000D01*
G01*
G37*
%TD.AperFunction*%
%TO.P,U1,6*%
%TO.N,Net-(R2-Pad2)*%
%TA.AperFunction,SMDPad,CuDef*%
G36*
G01*
X171290000Y-74535000D02*
X171290000Y-75235000D01*
G75*
G02*
X171215000Y-75310000I-75000J0D01*
G01*
X171065000Y-75310000D01*
G75*
G02*
X170990000Y-75235000I0J75000D01*
G01*
X170990000Y-74535000D01*
G75*
G02*
X171065000Y-74460000I75000J0D01*
G01*
X171215000Y-74460000D01*
G75*
G02*
X171290000Y-74535000I0J-75000D01*
G01*
G37*
%TD.AperFunction*%
%TO.P,U1,5*%
%TO.N,~TX_LED*%
%TA.AperFunction,SMDPad,CuDef*%
G36*
G01*
X171940000Y-74535000D02*
X171940000Y-75235000D01*
G75*
G02*
X171865000Y-75310000I-75000J0D01*
G01*
X171715000Y-75310000D01*
G75*
G02*
X171640000Y-75235000I0J75000D01*
G01*
X171640000Y-74535000D01*
G75*
G02*
X171715000Y-74460000I75000J0D01*
G01*
X171865000Y-74460000D01*
G75*
G02*
X171940000Y-74535000I0J-75000D01*
G01*
G37*
%TD.AperFunction*%
%TO.P,U1,4*%
%TO.N,Net-(U1-Pad4)*%
%TA.AperFunction,SMDPad,CuDef*%
G36*
G01*
X173190000Y-75785000D02*
X173190000Y-75935000D01*
G75*
G02*
X173115000Y-76010000I-75000J0D01*
G01*
X172415000Y-76010000D01*
G75*
G02*
X172340000Y-75935000I0J75000D01*
G01*
X172340000Y-75785000D01*
G75*
G02*
X172415000Y-75710000I75000J0D01*
G01*
X173115000Y-75710000D01*
G75*
G02*
X173190000Y-75785000I0J-75000D01*
G01*
G37*
%TD.AperFunction*%
%TO.P,U1,3*%
%TO.N,GND*%
%TA.AperFunction,SMDPad,CuDef*%
G36*
G01*
X173190000Y-76435000D02*
X173190000Y-76585000D01*
G75*
G02*
X173115000Y-76660000I-75000J0D01*
G01*
X172415000Y-76660000D01*
G75*
G02*
X172340000Y-76585000I0J75000D01*
G01*
X172340000Y-76435000D01*
G75*
G02*
X172415000Y-76360000I75000J0D01*
G01*
X173115000Y-76360000D01*
G75*
G02*
X173190000Y-76435000I0J-75000D01*
G01*
G37*
%TD.AperFunction*%
%TO.P,U1,2*%
%TO.N,UART_TX*%
%TA.AperFunction,SMDPad,CuDef*%
G36*
G01*
X173190000Y-77085000D02*
X173190000Y-77235000D01*
G75*
G02*
X173115000Y-77310000I-75000J0D01*
G01*
X172415000Y-77310000D01*
G75*
G02*
X172340000Y-77235000I0J75000D01*
G01*
X172340000Y-77085000D01*
G75*
G02*
X172415000Y-77010000I75000J0D01*
G01*
X173115000Y-77010000D01*
G75*
G02*
X173190000Y-77085000I0J-75000D01*
G01*
G37*
%TD.AperFunction*%
%TO.P,U1,1*%
%TO.N,+3V3*%
%TA.AperFunction,SMDPad,CuDef*%
G36*
G01*
X173190000Y-77735000D02*
X173190000Y-77885000D01*
G75*
G02*
X173115000Y-77960000I-75000J0D01*
G01*
X172415000Y-77960000D01*
G75*
G02*
X172340000Y-77885000I0J75000D01*
G01*
X172340000Y-77735000D01*
G75*
G02*
X172415000Y-77660000I75000J0D01*
G01*
X173115000Y-77660000D01*
G75*
G02*
X173190000Y-77735000I0J-75000D01*
G01*
G37*
%TD.AperFunction*%
%TD*%
%TO.P,R5,2*%
%TO.N,Net-(D2-Pad2)*%
%TA.AperFunction,SMDPad,CuDef*%
G36*
G01*
X168737500Y-85280000D02*
X169082500Y-85280000D01*
G75*
G02*
X169230000Y-85427500I0J-147500D01*
G01*
X169230000Y-85722500D01*
G75*
G02*
X169082500Y-85870000I-147500J0D01*
G01*
X168737500Y-85870000D01*
G75*
G02*
X168590000Y-85722500I0J147500D01*
G01*
X168590000Y-85427500D01*
G75*
G02*
X168737500Y-85280000I147500J0D01*
G01*
G37*
%TD.AperFunction*%
%TO.P,R5,1*%
%TO.N,+3V3*%
%TA.AperFunction,SMDPad,CuDef*%
G36*
G01*
X168737500Y-84310000D02*
X169082500Y-84310000D01*
G75*
G02*
X169230000Y-84457500I0J-147500D01*
G01*
X169230000Y-84752500D01*
G75*
G02*
X169082500Y-84900000I-147500J0D01*
G01*
X168737500Y-84900000D01*
G75*
G02*
X168590000Y-84752500I0J147500D01*
G01*
X168590000Y-84457500D01*
G75*
G02*
X168737500Y-84310000I147500J0D01*
G01*
G37*
%TD.AperFunction*%
%TD*%
%TO.P,R4,2*%
%TO.N,Net-(D1-Pad2)*%
%TA.AperFunction,SMDPad,CuDef*%
G36*
G01*
X171277500Y-85280000D02*
X171622500Y-85280000D01*
G75*
G02*
X171770000Y-85427500I0J-147500D01*
G01*
X171770000Y-85722500D01*
G75*
G02*
X171622500Y-85870000I-147500J0D01*
G01*
X171277500Y-85870000D01*
G75*
G02*
X171130000Y-85722500I0J147500D01*
G01*
X171130000Y-85427500D01*
G75*
G02*
X171277500Y-85280000I147500J0D01*
G01*
G37*
%TD.AperFunction*%
%TO.P,R4,1*%
%TO.N,+3V3*%
%TA.AperFunction,SMDPad,CuDef*%
G36*
G01*
X171277500Y-84310000D02*
X171622500Y-84310000D01*
G75*
G02*
X171770000Y-84457500I0J-147500D01*
G01*
X171770000Y-84752500D01*
G75*
G02*
X171622500Y-84900000I-147500J0D01*
G01*
X171277500Y-84900000D01*
G75*
G02*
X171130000Y-84752500I0J147500D01*
G01*
X171130000Y-84457500D01*
G75*
G02*
X171277500Y-84310000I147500J0D01*
G01*
G37*
%TD.AperFunction*%
%TD*%
%TO.P,R3,2*%
%TO.N,~RESET*%
%TA.AperFunction,SMDPad,CuDef*%
G36*
G01*
X181800000Y-64307500D02*
X181800000Y-63962500D01*
G75*
G02*
X181947500Y-63815000I147500J0D01*
G01*
X182242500Y-63815000D01*
G75*
G02*
X182390000Y-63962500I0J-147500D01*
G01*
X182390000Y-64307500D01*
G75*
G02*
X182242500Y-64455000I-147500J0D01*
G01*
X181947500Y-64455000D01*
G75*
G02*
X181800000Y-64307500I0J147500D01*
G01*
G37*
%TD.AperFunction*%
%TO.P,R3,1*%
%TO.N,VCC*%
%TA.AperFunction,SMDPad,CuDef*%
G36*
G01*
X180830000Y-64307500D02*
X180830000Y-63962500D01*
G75*
G02*
X180977500Y-63815000I147500J0D01*
G01*
X181272500Y-63815000D01*
G75*
G02*
X181420000Y-63962500I0J-147500D01*
G01*
X181420000Y-64307500D01*
G75*
G02*
X181272500Y-64455000I-147500J0D01*
G01*
X180977500Y-64455000D01*
G75*
G02*
X180830000Y-64307500I0J147500D01*
G01*
G37*
%TD.AperFunction*%
%TD*%
%TO.P,R2,2*%
%TO.N,Net-(R2-Pad2)*%
%TA.AperFunction,SMDPad,CuDef*%
G36*
G01*
X170007500Y-73215000D02*
X170352500Y-73215000D01*
G75*
G02*
X170500000Y-73362500I0J-147500D01*
G01*
X170500000Y-73657500D01*
G75*
G02*
X170352500Y-73805000I-147500J0D01*
G01*
X170007500Y-73805000D01*
G75*
G02*
X169860000Y-73657500I0J147500D01*
G01*
X169860000Y-73362500D01*
G75*
G02*
X170007500Y-73215000I147500J0D01*
G01*
G37*
%TD.AperFunction*%
%TO.P,R2,1*%
%TO.N,Net-(J4-PadA6)*%
%TA.AperFunction,SMDPad,CuDef*%
G36*
G01*
X170007500Y-72245000D02*
X170352500Y-72245000D01*
G75*
G02*
X170500000Y-72392500I0J-147500D01*
G01*
X170500000Y-72687500D01*
G75*
G02*
X170352500Y-72835000I-147500J0D01*
G01*
X170007500Y-72835000D01*
G75*
G02*
X169860000Y-72687500I0J147500D01*
G01*
X169860000Y-72392500D01*
G75*
G02*
X170007500Y-72245000I147500J0D01*
G01*
G37*
%TD.AperFunction*%
%TD*%
%TO.P,R1,2*%
%TO.N,Net-(R1-Pad2)*%
%TA.AperFunction,SMDPad,CuDef*%
G36*
G01*
X168737500Y-73215000D02*
X169082500Y-73215000D01*
G75*
G02*
X169230000Y-73362500I0J-147500D01*
G01*
X169230000Y-73657500D01*
G75*
G02*
X169082500Y-73805000I-147500J0D01*
G01*
X168737500Y-73805000D01*
G75*
G02*
X168590000Y-73657500I0J147500D01*
G01*
X168590000Y-73362500D01*
G75*
G02*
X168737500Y-73215000I147500J0D01*
G01*
G37*
%TD.AperFunction*%
%TO.P,R1,1*%
%TO.N,Net-(J4-PadA7)*%
%TA.AperFunction,SMDPad,CuDef*%
G36*
G01*
X168737500Y-72245000D02*
X169082500Y-72245000D01*
G75*
G02*
X169230000Y-72392500I0J-147500D01*
G01*
X169230000Y-72687500D01*
G75*
G02*
X169082500Y-72835000I-147500J0D01*
G01*
X168737500Y-72835000D01*
G75*
G02*
X168590000Y-72687500I0J147500D01*
G01*
X168590000Y-72392500D01*
G75*
G02*
X168737500Y-72245000I147500J0D01*
G01*
G37*
%TD.AperFunction*%
%TD*%
D15*
%TO.P,J4,S1*%
%TO.N,GND*%
X165420000Y-66760000D03*
X174070000Y-66760000D03*
D16*
X165420000Y-70140000D03*
X174070000Y-70140000D03*
D17*
%TO.P,J4,B6*%
%TO.N,Net-(J4-PadA6)*%
X169320000Y-69770000D03*
%TO.P,J4,B1*%
%TO.N,GND*%
X166770000Y-69770000D03*
%TO.P,J4,B4*%
%TO.N,+5V*%
X167620000Y-69770000D03*
%TO.P,J4,B5*%
%TO.N,Net-(J4-PadB5)*%
X168470000Y-69770000D03*
%TO.P,J4,B12*%
%TO.N,GND*%
X172720000Y-69770000D03*
%TO.P,J4,B8*%
%TO.N,Net-(J4-PadB8)*%
X171020000Y-69770000D03*
%TO.P,J4,B7*%
%TO.N,Net-(J4-PadA7)*%
X170170000Y-69770000D03*
%TO.P,J4,B9*%
%TO.N,+5V*%
X171870000Y-69770000D03*
%TO.P,J4,A12*%
%TO.N,GND*%
X166770000Y-71120000D03*
%TO.P,J4,A9*%
%TO.N,+5V*%
X167620000Y-71120000D03*
%TO.P,J4,A8*%
%TO.N,Net-(J4-PadA8)*%
X168470000Y-71120000D03*
%TO.P,J4,A7*%
%TO.N,Net-(J4-PadA7)*%
X169320000Y-71120000D03*
%TO.P,J4,A6*%
%TO.N,Net-(J4-PadA6)*%
X170170000Y-71120000D03*
%TO.P,J4,A5*%
%TO.N,Net-(J4-PadA5)*%
X171020000Y-71120000D03*
%TO.P,J4,A4*%
%TO.N,+5V*%
X171870000Y-71120000D03*
%TO.P,J4,A1*%
%TO.N,GND*%
X172720000Y-71120000D03*
%TD*%
D10*
%TO.P,J3,2*%
%TO.N,UART_TX*%
X179070000Y-76835000D03*
D11*
%TO.P,J3,1*%
%TO.N,UART_RX*%
X181610000Y-76835000D03*
%TD*%
D13*
%TO.P,J2,10*%
%TO.N,~RESET*%
X158750000Y-79330000D03*
%TO.P,J2,9*%
%TO.N,UART_TX*%
X158750000Y-83230000D03*
%TO.P,J2,8*%
%TO.N,Net-(J2-Pad8)*%
X157480000Y-79330000D03*
%TO.P,J2,7*%
%TO.N,UART_RX*%
X157480000Y-83230000D03*
%TO.P,J2,6*%
%TO.N,Net-(J2-Pad6)*%
X156210000Y-79330000D03*
%TO.P,J2,5*%
%TO.N,GND*%
X156210000Y-83230000D03*
%TO.P,J2,4*%
%TO.N,SWDCLK*%
X154940000Y-79330000D03*
%TO.P,J2,3*%
%TO.N,GND*%
X154940000Y-83230000D03*
%TO.P,J2,2*%
%TO.N,SWDIO*%
X153670000Y-79330000D03*
%TO.P,J2,1*%
%TO.N,VCC*%
X153670000Y-83230000D03*
%TD*%
%TO.P,J1,10*%
%TO.N,~RESET*%
X158750000Y-68535000D03*
%TO.P,J1,9*%
%TO.N,GND*%
X158750000Y-72435000D03*
%TO.P,J1,8*%
%TO.N,Net-(J1-Pad8)*%
X157480000Y-68535000D03*
%TO.P,J1,7*%
%TO.N,Net-(J1-Pad7)*%
X157480000Y-72435000D03*
%TO.P,J1,6*%
%TO.N,Net-(J1-Pad6)*%
X156210000Y-68535000D03*
%TO.P,J1,5*%
%TO.N,GND*%
X156210000Y-72435000D03*
%TO.P,J1,4*%
%TO.N,SWDCLK*%
X154940000Y-68535000D03*
%TO.P,J1,3*%
%TO.N,GND*%
X154940000Y-72435000D03*
%TO.P,J1,2*%
%TO.N,SWDIO*%
X153670000Y-68535000D03*
%TO.P,J1,1*%
%TO.N,VCC*%
X153670000Y-72435000D03*
%TD*%
%TO.P,D2,2*%
%TO.N,Net-(D2-Pad2)*%
%TA.AperFunction,SMDPad,CuDef*%
G36*
G01*
X170436250Y-84740000D02*
X169923750Y-84740000D01*
G75*
G02*
X169705000Y-84521250I0J218750D01*
G01*
X169705000Y-84083750D01*
G75*
G02*
X169923750Y-83865000I218750J0D01*
G01*
X170436250Y-83865000D01*
G75*
G02*
X170655000Y-84083750I0J-218750D01*
G01*
X170655000Y-84521250D01*
G75*
G02*
X170436250Y-84740000I-218750J0D01*
G01*
G37*
%TD.AperFunction*%
%TO.P,D2,1*%
%TO.N,~TX_LED*%
%TA.AperFunction,SMDPad,CuDef*%
G36*
G01*
X170436250Y-86315000D02*
X169923750Y-86315000D01*
G75*
G02*
X169705000Y-86096250I0J218750D01*
G01*
X169705000Y-85658750D01*
G75*
G02*
X169923750Y-85440000I218750J0D01*
G01*
X170436250Y-85440000D01*
G75*
G02*
X170655000Y-85658750I0J-218750D01*
G01*
X170655000Y-86096250D01*
G75*
G02*
X170436250Y-86315000I-218750J0D01*
G01*
G37*
%TD.AperFunction*%
%TD*%
%TO.P,D1,2*%
%TO.N,Net-(D1-Pad2)*%
%TA.AperFunction,SMDPad,CuDef*%
G36*
G01*
X172976250Y-84740000D02*
X172463750Y-84740000D01*
G75*
G02*
X172245000Y-84521250I0J218750D01*
G01*
X172245000Y-84083750D01*
G75*
G02*
X172463750Y-83865000I218750J0D01*
G01*
X172976250Y-83865000D01*
G75*
G02*
X173195000Y-84083750I0J-218750D01*
G01*
X173195000Y-84521250D01*
G75*
G02*
X172976250Y-84740000I-218750J0D01*
G01*
G37*
%TD.AperFunction*%
%TO.P,D1,1*%
%TO.N,~RX_LED*%
%TA.AperFunction,SMDPad,CuDef*%
G36*
G01*
X172976250Y-86315000D02*
X172463750Y-86315000D01*
G75*
G02*
X172245000Y-86096250I0J218750D01*
G01*
X172245000Y-85658750D01*
G75*
G02*
X172463750Y-85440000I218750J0D01*
G01*
X172976250Y-85440000D01*
G75*
G02*
X173195000Y-85658750I0J-218750D01*
G01*
X173195000Y-86096250D01*
G75*
G02*
X172976250Y-86315000I-218750J0D01*
G01*
G37*
%TD.AperFunction*%
%TD*%
%TO.P,C2,2*%
%TO.N,GND*%
%TA.AperFunction,SMDPad,CuDef*%
G36*
G01*
X167177500Y-74740000D02*
X166832500Y-74740000D01*
G75*
G02*
X166685000Y-74592500I0J147500D01*
G01*
X166685000Y-74297500D01*
G75*
G02*
X166832500Y-74150000I147500J0D01*
G01*
X167177500Y-74150000D01*
G75*
G02*
X167325000Y-74297500I0J-147500D01*
G01*
X167325000Y-74592500D01*
G75*
G02*
X167177500Y-74740000I-147500J0D01*
G01*
G37*
%TD.AperFunction*%
%TO.P,C2,1*%
%TO.N,+3V3*%
%TA.AperFunction,SMDPad,CuDef*%
G36*
G01*
X167177500Y-75710000D02*
X166832500Y-75710000D01*
G75*
G02*
X166685000Y-75562500I0J147500D01*
G01*
X166685000Y-75267500D01*
G75*
G02*
X166832500Y-75120000I147500J0D01*
G01*
X167177500Y-75120000D01*
G75*
G02*
X167325000Y-75267500I0J-147500D01*
G01*
X167325000Y-75562500D01*
G75*
G02*
X167177500Y-75710000I-147500J0D01*
G01*
G37*
%TD.AperFunction*%
%TD*%
%TO.P,C1,2*%
%TO.N,GND*%
%TA.AperFunction,SMDPad,CuDef*%
G36*
G01*
X166832500Y-77025000D02*
X167177500Y-77025000D01*
G75*
G02*
X167325000Y-77172500I0J-147500D01*
G01*
X167325000Y-77467500D01*
G75*
G02*
X167177500Y-77615000I-147500J0D01*
G01*
X166832500Y-77615000D01*
G75*
G02*
X166685000Y-77467500I0J147500D01*
G01*
X166685000Y-77172500D01*
G75*
G02*
X166832500Y-77025000I147500J0D01*
G01*
G37*
%TD.AperFunction*%
%TO.P,C1,1*%
%TO.N,+5V*%
%TA.AperFunction,SMDPad,CuDef*%
G36*
G01*
X166832500Y-76055000D02*
X167177500Y-76055000D01*
G75*
G02*
X167325000Y-76202500I0J-147500D01*
G01*
X167325000Y-76497500D01*
G75*
G02*
X167177500Y-76645000I-147500J0D01*
G01*
X166832500Y-76645000D01*
G75*
G02*
X166685000Y-76497500I0J147500D01*
G01*
X166685000Y-76202500D01*
G75*
G02*
X166832500Y-76055000I147500J0D01*
G01*
G37*
%TD.AperFunction*%
%TD*%
D18*
%TO.N,GND*%
X170815000Y-76835000D03*
X137160000Y-78740000D03*
X137160000Y-74295000D03*
X142240000Y-74295000D03*
X156230165Y-73690937D03*
X156210000Y-76835000D03*
X156210000Y-81280000D03*
X137160000Y-65405000D03*
X142240000Y-65405000D03*
X147320000Y-65405000D03*
X152400000Y-65405000D03*
X157480000Y-65405000D03*
X163195000Y-65405000D03*
X147320000Y-78740000D03*
X177165000Y-65405000D03*
X177165000Y-69850000D03*
X177165000Y-73660000D03*
X177165000Y-79375000D03*
X181610000Y-79375000D03*
X181610000Y-73660000D03*
X181610000Y-83820000D03*
X167640000Y-73660000D03*
X167217827Y-78757735D03*
%TO.N,+5V*%
X163830000Y-82460000D03*
X165930153Y-82354847D03*
%TO.N,+3V3*%
X173990000Y-78105000D03*
X168275000Y-74930000D03*
X170180000Y-82460000D03*
%TO.N,~TX_LED*%
X174325315Y-80064424D03*
X172720000Y-74930000D03*
%TO.N,~RESET*%
X140150001Y-73025000D03*
X158750000Y-70485000D03*
X158750000Y-81280000D03*
X182245000Y-68580000D03*
%TO.N,SWDCLK*%
X154940000Y-70485000D03*
X154940000Y-81280000D03*
%TO.N,SWDIO*%
X153670000Y-70485000D03*
X153670000Y-81280000D03*
%TO.N,VCC*%
X138430000Y-77470000D03*
X152400000Y-81280000D03*
X152400000Y-72390000D03*
%TO.N,UART_TX*%
X160020000Y-83185000D03*
X140970000Y-81280000D03*
%TO.N,UART_RX*%
X157480000Y-85090000D03*
%TO.N,SCK*%
X137160000Y-83230000D03*
%TD*%
D19*
%TO.N,GND*%
X172789990Y-76684990D02*
X173505010Y-76684990D01*
X172765000Y-76510000D02*
X172765000Y-76660000D01*
X172765000Y-76660000D02*
X172789990Y-76684990D01*
X176530000Y-73660000D02*
X177165000Y-73660000D01*
X173505010Y-76684990D02*
X176530000Y-73660000D01*
X169840000Y-77810000D02*
X170815000Y-76835000D01*
X169840000Y-78785000D02*
X169840000Y-77810000D01*
X167005000Y-74445000D02*
X167005000Y-74295000D01*
X167005000Y-74295000D02*
X167640000Y-73660000D01*
X166400000Y-70140000D02*
X166770000Y-69770000D01*
X165420000Y-70140000D02*
X166400000Y-70140000D01*
X165790000Y-70140000D02*
X166770000Y-71120000D01*
X165420000Y-70140000D02*
X165790000Y-70140000D01*
X165420000Y-70140000D02*
X166025000Y-70140000D01*
X166770000Y-69770000D02*
X166770000Y-70250000D01*
X166135000Y-70250000D02*
X166770000Y-70250000D01*
X166025000Y-70140000D02*
X166135000Y-70250000D01*
X166770000Y-70720000D02*
X166770000Y-71120000D01*
X166770000Y-70720000D02*
X166605000Y-70720000D01*
X166770000Y-70250000D02*
X166770000Y-70720000D01*
X166770000Y-70555000D02*
X166770000Y-69770000D01*
X166605000Y-70720000D02*
X166770000Y-70555000D01*
X166025000Y-70140000D02*
X166333746Y-70448746D01*
X166333746Y-70206254D02*
X166770000Y-69770000D01*
X166333746Y-70448746D02*
X166333746Y-70206254D01*
X166770000Y-71120000D02*
X166770000Y-70555000D01*
X166663746Y-70448746D02*
X166770000Y-70555000D01*
X166333746Y-70448746D02*
X166663746Y-70448746D01*
X166605000Y-70720000D02*
X166551937Y-70720000D01*
X166663746Y-70608191D02*
X166663746Y-70448746D01*
X166551937Y-70720000D02*
X166663746Y-70608191D01*
X172720000Y-69770000D02*
X172720000Y-71120000D01*
X173700000Y-69770000D02*
X174070000Y-70140000D01*
X172720000Y-69770000D02*
X173700000Y-69770000D01*
X167005000Y-77320000D02*
X167005000Y-78740000D01*
X156210000Y-73670772D02*
X156230165Y-73690937D01*
X156210000Y-72435000D02*
X156210000Y-73670772D01*
%TO.N,+5V*%
X168865000Y-76510000D02*
X167950000Y-76510000D01*
X167790000Y-76350000D02*
X167005000Y-76350000D01*
X167950000Y-76510000D02*
X167790000Y-76350000D01*
X167620000Y-69770000D02*
X167620000Y-71120000D01*
X167800027Y-69094999D02*
X171329999Y-69094999D01*
X167620000Y-69770000D02*
X167620000Y-69275026D01*
X167620000Y-69275026D02*
X167800027Y-69094999D01*
X171870000Y-69635000D02*
X171870000Y-69770000D01*
X171329999Y-69094999D02*
X171870000Y-69635000D01*
X171870000Y-69770000D02*
X171870000Y-71120000D01*
X166520000Y-76350000D02*
X167005000Y-76350000D01*
X166359990Y-76189990D02*
X166520000Y-76350000D01*
X166359990Y-73630010D02*
X166359990Y-76189990D01*
X167620000Y-71120000D02*
X167620000Y-72370000D01*
X167620000Y-72370000D02*
X166359990Y-73630010D01*
X163830000Y-84605000D02*
X163830000Y-82460000D01*
X166359990Y-81925010D02*
X166359990Y-76189990D01*
X165930153Y-82354847D02*
X166359990Y-81925010D01*
%TO.N,+3V3*%
X168865000Y-75860000D02*
X168865000Y-74975000D01*
X168955000Y-74885000D02*
X169840000Y-74885000D01*
X168865000Y-74975000D02*
X168955000Y-74885000D01*
X168865000Y-75860000D02*
X167935000Y-75860000D01*
X167490000Y-75415000D02*
X167005000Y-75415000D01*
X167935000Y-75860000D02*
X167490000Y-75415000D01*
X171450000Y-83820000D02*
X171450000Y-84605000D01*
X170815000Y-83185000D02*
X171450000Y-83820000D01*
X168910000Y-84605000D02*
X168910000Y-83820000D01*
X168910000Y-83820000D02*
X169545000Y-83185000D01*
X172765000Y-77810000D02*
X173695000Y-77810000D01*
X173695000Y-77810000D02*
X173990000Y-78105000D01*
X167790000Y-75415000D02*
X168275000Y-74930000D01*
X167005000Y-75415000D02*
X167790000Y-75415000D01*
X170180000Y-82460000D02*
X170180000Y-83185000D01*
X169545000Y-83185000D02*
X170180000Y-83185000D01*
X170180000Y-83185000D02*
X170815000Y-83185000D01*
%TO.N,Net-(D1-Pad2)*%
X172720000Y-84633506D02*
X172720000Y-84302500D01*
X171778506Y-85575000D02*
X172720000Y-84633506D01*
X171450000Y-85575000D02*
X171778506Y-85575000D01*
%TO.N,~RX_LED*%
X172720000Y-85877500D02*
X172768968Y-85877500D01*
X173520010Y-85126458D02*
X173520010Y-80175010D01*
X172768968Y-85877500D02*
X173520010Y-85126458D01*
X173520010Y-80175010D02*
X173355000Y-80010000D01*
X173355000Y-80010000D02*
X168910000Y-80010000D01*
X168440000Y-77160000D02*
X168865000Y-77160000D01*
X168114990Y-77485010D02*
X168440000Y-77160000D01*
X168114990Y-79214990D02*
X168114990Y-77485010D01*
X168910000Y-80010000D02*
X168114990Y-79214990D01*
%TO.N,Net-(D2-Pad2)*%
X170180000Y-84625000D02*
X170180000Y-84302500D01*
X169230000Y-85575000D02*
X170180000Y-84625000D01*
X168910000Y-85575000D02*
X169230000Y-85575000D01*
%TO.N,~TX_LED*%
X170942510Y-86640010D02*
X173201484Y-86640010D01*
X170180000Y-85877500D02*
X170942510Y-86640010D01*
X173201484Y-86640010D02*
X173990000Y-85851494D01*
X173990000Y-85851494D02*
X173990000Y-80399739D01*
X173990000Y-80399739D02*
X174325315Y-80064424D01*
X171790000Y-74885000D02*
X172675000Y-74885000D01*
X172675000Y-74885000D02*
X172720000Y-74930000D01*
%TO.N,~RESET*%
X139700000Y-79330000D02*
X139700000Y-78105000D01*
X139700000Y-78105000D02*
X140150001Y-77654999D01*
X140150001Y-77654999D02*
X140150001Y-73025000D01*
X158750000Y-68535000D02*
X158750000Y-70485000D01*
X158750000Y-81280000D02*
X158750000Y-79330000D01*
X182460000Y-68365000D02*
X182245000Y-68580000D01*
X182460000Y-65955000D02*
X182460000Y-68365000D01*
X182460000Y-68795000D02*
X182245000Y-68580000D01*
X182460000Y-71205000D02*
X182460000Y-68795000D01*
X182460000Y-64500000D02*
X182095000Y-64135000D01*
X182460000Y-65955000D02*
X182460000Y-64500000D01*
%TO.N,SWDCLK*%
X154940000Y-68535000D02*
X154940000Y-70485000D01*
X154940000Y-81280000D02*
X154940000Y-79330000D01*
%TO.N,SWDIO*%
X153670000Y-68535000D02*
X153670000Y-70485000D01*
X153670000Y-81280000D02*
X153670000Y-79330000D01*
%TO.N,VCC*%
X138430000Y-77470000D02*
X138430000Y-79330000D01*
X153670000Y-83230000D02*
X153080000Y-83230000D01*
X153080000Y-83230000D02*
X152400000Y-82550000D01*
X152400000Y-82550000D02*
X152400000Y-81280000D01*
X153625000Y-72390000D02*
X153670000Y-72435000D01*
X152400000Y-72390000D02*
X153625000Y-72390000D01*
X179705000Y-64770000D02*
X180340000Y-64135000D01*
X179705000Y-67310000D02*
X179705000Y-64770000D01*
X180340000Y-64135000D02*
X181125000Y-64135000D01*
X165395002Y-67945000D02*
X179070000Y-67945000D01*
X179070000Y-67945000D02*
X179705000Y-67310000D01*
X160167501Y-73172501D02*
X165395002Y-67945000D01*
X166370000Y-84605000D02*
X166370000Y-83820000D01*
X164284999Y-81734999D02*
X160474999Y-81734999D01*
X166370000Y-83820000D02*
X164284999Y-81734999D01*
X160474999Y-81734999D02*
X160020000Y-81280000D01*
X160020000Y-81280000D02*
X160020000Y-75269998D01*
X153670000Y-72435000D02*
X153670000Y-74295000D01*
X153670000Y-74295000D02*
X154305000Y-74930000D01*
X159680002Y-74930000D02*
X160020000Y-75269998D01*
X154305000Y-74930000D02*
X159680002Y-74930000D01*
X160167501Y-74442501D02*
X159680002Y-74930000D01*
X160167501Y-73172501D02*
X160167501Y-74442501D01*
%TO.N,UART_TX*%
X158750000Y-83230000D02*
X158750000Y-84046410D01*
X158750000Y-83230000D02*
X159975000Y-83230000D01*
X159975000Y-83230000D02*
X160020000Y-83185000D01*
X178570010Y-77334990D02*
X179070000Y-76835000D01*
X172789990Y-77334990D02*
X178570010Y-77334990D01*
X172765000Y-77310000D02*
X172789990Y-77334990D01*
X172765000Y-77160000D02*
X172765000Y-77310000D01*
X140970000Y-83230000D02*
X140970000Y-81280000D01*
%TO.N,UART_RX*%
X157480000Y-85090000D02*
X157480000Y-83230000D01*
X157480000Y-85090000D02*
X140674998Y-85090000D01*
X139700000Y-83230000D02*
X139700000Y-84455000D01*
X139700000Y-84455000D02*
X140335000Y-85090000D01*
X140335000Y-85090000D02*
X140674998Y-85090000D01*
X171549308Y-79535010D02*
X171140000Y-79125702D01*
X173829990Y-79535010D02*
X171549308Y-79535010D01*
X171140000Y-79125702D02*
X171140000Y-78785000D01*
X175260000Y-78105000D02*
X173829990Y-79535010D01*
X181610000Y-76835000D02*
X180340000Y-78105000D01*
X180340000Y-78105000D02*
X175260000Y-78105000D01*
%TO.N,Net-(J4-PadA6)*%
X170170000Y-70769002D02*
X170170000Y-71120000D01*
X169320000Y-69919002D02*
X170170000Y-70769002D01*
X169320000Y-69770000D02*
X169320000Y-69919002D01*
X170170000Y-72530000D02*
X170180000Y-72540000D01*
X170170000Y-71120000D02*
X170170000Y-72530000D01*
%TO.N,Net-(J4-PadA7)*%
X169320000Y-72130000D02*
X168910000Y-72540000D01*
X169320000Y-71120000D02*
X169320000Y-72130000D01*
%TO.N,Net-(R1-Pad2)*%
X170490000Y-74460000D02*
X170490000Y-74885000D01*
X170164990Y-74134990D02*
X170490000Y-74460000D01*
X169534990Y-74134990D02*
X170164990Y-74134990D01*
X168910000Y-73510000D02*
X169534990Y-74134990D01*
%TO.N,Net-(R2-Pad2)*%
X171140000Y-74470000D02*
X171140000Y-74885000D01*
X170180000Y-73510000D02*
X171140000Y-74470000D01*
%TO.N,Net-(D3-Pad2)*%
X165100000Y-84625000D02*
X165100000Y-84302500D01*
X164150000Y-85575000D02*
X165100000Y-84625000D01*
X163830000Y-85575000D02*
X164150000Y-85575000D01*
%TO.N,Net-(D4-Pad2)*%
X167640000Y-84633506D02*
X167640000Y-84302500D01*
X166698506Y-85575000D02*
X167640000Y-84633506D01*
X166370000Y-85575000D02*
X166698506Y-85575000D01*
%TO.N,MOSI*%
X140875001Y-69755001D02*
X140875001Y-76740001D01*
X139700000Y-68580000D02*
X140875001Y-69755001D01*
X140875001Y-76740001D02*
X141605000Y-77470000D01*
X142535002Y-77470000D02*
X142935001Y-77869999D01*
X141605000Y-77470000D02*
X142535002Y-77470000D01*
X142935001Y-77869999D02*
X142935001Y-83124999D01*
X142830000Y-83230000D02*
X142240000Y-83230000D01*
X142935001Y-83124999D02*
X142830000Y-83230000D01*
%TO.N,SCK*%
X136570000Y-83230000D02*
X137160000Y-83230000D01*
X135255000Y-81915000D02*
X136570000Y-83230000D01*
X135890000Y-69850000D02*
X135255000Y-70485000D01*
X139700000Y-71120000D02*
X138430000Y-69850000D01*
X135255000Y-70485000D02*
X135255000Y-81915000D01*
X138430000Y-69850000D02*
X135890000Y-69850000D01*
X137160000Y-83230000D02*
X137160000Y-83230000D01*
%TO.N,MISO*%
X137160000Y-71120000D02*
X136464999Y-71815001D01*
X138430000Y-81780000D02*
X138430000Y-83230000D01*
X135890000Y-71120000D02*
X135705010Y-71304990D01*
X137160000Y-71120000D02*
X135890000Y-71120000D01*
X135705010Y-71304990D02*
X135705010Y-80460010D01*
X135705010Y-80460010D02*
X136525000Y-81280000D01*
X137930000Y-81280000D02*
X138430000Y-81780000D01*
X136525000Y-81280000D02*
X137930000Y-81280000D01*
%TD*%
D20*
%TO.N,GND*%
G36*
X179193998Y-64206201D02*
G01*
X179165000Y-64229999D01*
X179141202Y-64258997D01*
X179141201Y-64258998D01*
X179070026Y-64345724D01*
X178999454Y-64477754D01*
X178955998Y-64621015D01*
X178941324Y-64770000D01*
X178945001Y-64807332D01*
X178945000Y-66995198D01*
X178755199Y-67185000D01*
X175155000Y-67185000D01*
X175155000Y-66887000D01*
X174197000Y-66887000D01*
X174197000Y-66907000D01*
X173943000Y-66907000D01*
X173943000Y-66887000D01*
X172985000Y-66887000D01*
X172985000Y-67185000D01*
X166505000Y-67185000D01*
X166505000Y-66887000D01*
X165547000Y-66887000D01*
X165547000Y-66907000D01*
X165293000Y-66907000D01*
X165293000Y-66887000D01*
X164335000Y-66887000D01*
X164335000Y-67287000D01*
X164380624Y-67496233D01*
X164466191Y-67692545D01*
X164509846Y-67755354D01*
X159656504Y-72608697D01*
X159649058Y-72614808D01*
X159596250Y-72562000D01*
X158877000Y-72562000D01*
X158877000Y-72582000D01*
X158623000Y-72582000D01*
X158623000Y-72562000D01*
X158603000Y-72562000D01*
X158603000Y-72308000D01*
X158623000Y-72308000D01*
X158623000Y-72288000D01*
X158877000Y-72288000D01*
X158877000Y-72308000D01*
X159596250Y-72308000D01*
X159755000Y-72149250D01*
X159758072Y-71235000D01*
X159745812Y-71110518D01*
X159709502Y-70990820D01*
X159682040Y-70939442D01*
X159745226Y-70786898D01*
X159785000Y-70586939D01*
X159785000Y-70383061D01*
X159745226Y-70183102D01*
X159682040Y-70030558D01*
X159709502Y-69979180D01*
X159745812Y-69859482D01*
X159758072Y-69735000D01*
X159758072Y-67335000D01*
X159745812Y-67210518D01*
X159709502Y-67090820D01*
X159650537Y-66980506D01*
X159571185Y-66883815D01*
X159474494Y-66804463D01*
X159364180Y-66745498D01*
X159244482Y-66709188D01*
X159120000Y-66696928D01*
X158380000Y-66696928D01*
X158255518Y-66709188D01*
X158135820Y-66745498D01*
X158115000Y-66756627D01*
X158094180Y-66745498D01*
X157974482Y-66709188D01*
X157850000Y-66696928D01*
X157110000Y-66696928D01*
X156985518Y-66709188D01*
X156865820Y-66745498D01*
X156845000Y-66756627D01*
X156824180Y-66745498D01*
X156704482Y-66709188D01*
X156580000Y-66696928D01*
X155840000Y-66696928D01*
X155715518Y-66709188D01*
X155595820Y-66745498D01*
X155575000Y-66756627D01*
X155554180Y-66745498D01*
X155434482Y-66709188D01*
X155310000Y-66696928D01*
X154570000Y-66696928D01*
X154445518Y-66709188D01*
X154325820Y-66745498D01*
X154305000Y-66756627D01*
X154284180Y-66745498D01*
X154164482Y-66709188D01*
X154040000Y-66696928D01*
X153300000Y-66696928D01*
X153175518Y-66709188D01*
X153055820Y-66745498D01*
X152945506Y-66804463D01*
X152848815Y-66883815D01*
X152769463Y-66980506D01*
X152710498Y-67090820D01*
X152674188Y-67210518D01*
X152661928Y-67335000D01*
X152661928Y-69735000D01*
X152674188Y-69859482D01*
X152710498Y-69979180D01*
X152737960Y-70030558D01*
X152674774Y-70183102D01*
X152635000Y-70383061D01*
X152635000Y-70586939D01*
X152674774Y-70786898D01*
X152737960Y-70939442D01*
X152710498Y-70990820D01*
X152674188Y-71110518D01*
X152661928Y-71235000D01*
X152661928Y-71386824D01*
X152501939Y-71355000D01*
X152298061Y-71355000D01*
X152098102Y-71394774D01*
X151909744Y-71472795D01*
X151740226Y-71586063D01*
X151596063Y-71730226D01*
X151482795Y-71899744D01*
X151404774Y-72088102D01*
X151365000Y-72288061D01*
X151365000Y-72491939D01*
X151404774Y-72691898D01*
X151482795Y-72880256D01*
X151596063Y-73049774D01*
X151740226Y-73193937D01*
X151909744Y-73307205D01*
X152098102Y-73385226D01*
X152298061Y-73425000D01*
X152501939Y-73425000D01*
X152661928Y-73393176D01*
X152661928Y-73635000D01*
X152674188Y-73759482D01*
X152710498Y-73879180D01*
X152769463Y-73989494D01*
X152848815Y-74086185D01*
X152910001Y-74136399D01*
X152910001Y-74257668D01*
X152906324Y-74295000D01*
X152910001Y-74332333D01*
X152920998Y-74443986D01*
X152928889Y-74469999D01*
X152964454Y-74587246D01*
X153035026Y-74719276D01*
X153093509Y-74790537D01*
X153130000Y-74835001D01*
X153158998Y-74858799D01*
X153741200Y-75441002D01*
X153764999Y-75470001D01*
X153793997Y-75493799D01*
X153880724Y-75564974D01*
X154012753Y-75635546D01*
X154156014Y-75679003D01*
X154305000Y-75693677D01*
X154342333Y-75690000D01*
X159260001Y-75690000D01*
X159260001Y-77508896D01*
X159244482Y-77504188D01*
X159120000Y-77491928D01*
X158380000Y-77491928D01*
X158255518Y-77504188D01*
X158135820Y-77540498D01*
X158115000Y-77551627D01*
X158094180Y-77540498D01*
X157974482Y-77504188D01*
X157850000Y-77491928D01*
X157110000Y-77491928D01*
X156985518Y-77504188D01*
X156865820Y-77540498D01*
X156845000Y-77551627D01*
X156824180Y-77540498D01*
X156704482Y-77504188D01*
X156580000Y-77491928D01*
X155840000Y-77491928D01*
X155715518Y-77504188D01*
X155595820Y-77540498D01*
X155575000Y-77551627D01*
X155554180Y-77540498D01*
X155434482Y-77504188D01*
X155310000Y-77491928D01*
X154570000Y-77491928D01*
X154445518Y-77504188D01*
X154325820Y-77540498D01*
X154305000Y-77551627D01*
X154284180Y-77540498D01*
X154164482Y-77504188D01*
X154040000Y-77491928D01*
X153300000Y-77491928D01*
X153175518Y-77504188D01*
X153055820Y-77540498D01*
X152945506Y-77599463D01*
X152848815Y-77678815D01*
X152769463Y-77775506D01*
X152710498Y-77885820D01*
X152674188Y-78005518D01*
X152661928Y-78130000D01*
X152661928Y-80276824D01*
X152501939Y-80245000D01*
X152298061Y-80245000D01*
X152098102Y-80284774D01*
X151909744Y-80362795D01*
X151740226Y-80476063D01*
X151596063Y-80620226D01*
X151482795Y-80789744D01*
X151404774Y-80978102D01*
X151365000Y-81178061D01*
X151365000Y-81381939D01*
X151404774Y-81581898D01*
X151482795Y-81770256D01*
X151596063Y-81939774D01*
X151640000Y-81983711D01*
X151640000Y-82512677D01*
X151636324Y-82550000D01*
X151640000Y-82587322D01*
X151640000Y-82587332D01*
X151650997Y-82698985D01*
X151683376Y-82805725D01*
X151694454Y-82842246D01*
X151765026Y-82974276D01*
X151766452Y-82976013D01*
X151859999Y-83090001D01*
X151889002Y-83113803D01*
X152516201Y-83741002D01*
X152539999Y-83770001D01*
X152655724Y-83864974D01*
X152661928Y-83868290D01*
X152661928Y-84330000D01*
X143248072Y-84330000D01*
X143248072Y-83868290D01*
X143254276Y-83864974D01*
X143370001Y-83770001D01*
X143393804Y-83740997D01*
X143445998Y-83688803D01*
X143475002Y-83665000D01*
X143569975Y-83549275D01*
X143640547Y-83417246D01*
X143684004Y-83273985D01*
X143695001Y-83162332D01*
X143695001Y-83162321D01*
X143698677Y-83124999D01*
X143695001Y-83087676D01*
X143695001Y-77907321D01*
X143698677Y-77869998D01*
X143695001Y-77832676D01*
X143695001Y-77832666D01*
X143684004Y-77721013D01*
X143640547Y-77577752D01*
X143569975Y-77445723D01*
X143475002Y-77329998D01*
X143445999Y-77306196D01*
X143098806Y-76959003D01*
X143075003Y-76929999D01*
X142959278Y-76835026D01*
X142827249Y-76764454D01*
X142683988Y-76720997D01*
X142572335Y-76710000D01*
X142572324Y-76710000D01*
X142535002Y-76706324D01*
X142497680Y-76710000D01*
X141919802Y-76710000D01*
X141635001Y-76425199D01*
X141635001Y-75403967D01*
X146320000Y-75403967D01*
X146320000Y-75726033D01*
X146382832Y-76041912D01*
X146506082Y-76339463D01*
X146685013Y-76607252D01*
X146912748Y-76834987D01*
X147180537Y-77013918D01*
X147478088Y-77137168D01*
X147793967Y-77200000D01*
X148116033Y-77200000D01*
X148431912Y-77137168D01*
X148729463Y-77013918D01*
X148997252Y-76834987D01*
X149224987Y-76607252D01*
X149403918Y-76339463D01*
X149527168Y-76041912D01*
X149590000Y-75726033D01*
X149590000Y-75403967D01*
X149527168Y-75088088D01*
X149403918Y-74790537D01*
X149224987Y-74522748D01*
X148997252Y-74295013D01*
X148729463Y-74116082D01*
X148431912Y-73992832D01*
X148116033Y-73930000D01*
X147793967Y-73930000D01*
X147478088Y-73992832D01*
X147180537Y-74116082D01*
X146912748Y-74295013D01*
X146685013Y-74522748D01*
X146506082Y-74790537D01*
X146382832Y-75088088D01*
X146320000Y-75403967D01*
X141635001Y-75403967D01*
X141635001Y-72476753D01*
X141806842Y-72547932D01*
X142093740Y-72605000D01*
X142386260Y-72605000D01*
X142673158Y-72547932D01*
X142943411Y-72435990D01*
X143186632Y-72273475D01*
X143393475Y-72066632D01*
X143555990Y-71823411D01*
X143667932Y-71553158D01*
X143725000Y-71266260D01*
X143725000Y-70973740D01*
X143667932Y-70686842D01*
X143555990Y-70416589D01*
X143393475Y-70173368D01*
X143186632Y-69966525D01*
X143010594Y-69848900D01*
X143240269Y-69677588D01*
X143435178Y-69461355D01*
X143584157Y-69211252D01*
X143681481Y-68936891D01*
X143560814Y-68707000D01*
X142367000Y-68707000D01*
X142367000Y-68727000D01*
X142113000Y-68727000D01*
X142113000Y-68707000D01*
X142093000Y-68707000D01*
X142093000Y-68453000D01*
X142113000Y-68453000D01*
X142113000Y-67259845D01*
X142367000Y-67259845D01*
X142367000Y-68453000D01*
X143560814Y-68453000D01*
X143681481Y-68223109D01*
X143584157Y-67948748D01*
X143435178Y-67698645D01*
X143240269Y-67482412D01*
X143006920Y-67308359D01*
X142744099Y-67183175D01*
X142596890Y-67138524D01*
X142367000Y-67259845D01*
X142113000Y-67259845D01*
X141883110Y-67138524D01*
X141735901Y-67183175D01*
X141473080Y-67308359D01*
X141239731Y-67482412D01*
X141044822Y-67698645D01*
X140975195Y-67815534D01*
X140853475Y-67633368D01*
X140646632Y-67426525D01*
X140403411Y-67264010D01*
X140133158Y-67152068D01*
X139846260Y-67095000D01*
X139553740Y-67095000D01*
X139266842Y-67152068D01*
X138996589Y-67264010D01*
X138753368Y-67426525D01*
X138546525Y-67633368D01*
X138430000Y-67807760D01*
X138313475Y-67633368D01*
X138106632Y-67426525D01*
X137863411Y-67264010D01*
X137593158Y-67152068D01*
X137306260Y-67095000D01*
X137013740Y-67095000D01*
X136726842Y-67152068D01*
X136456589Y-67264010D01*
X136213368Y-67426525D01*
X136006525Y-67633368D01*
X135844010Y-67876589D01*
X135732068Y-68146842D01*
X135675000Y-68433740D01*
X135675000Y-68726260D01*
X135732068Y-69013158D01*
X135767376Y-69098400D01*
X135741014Y-69100997D01*
X135597753Y-69144454D01*
X135465724Y-69215026D01*
X135349999Y-69309999D01*
X135326200Y-69338998D01*
X134744002Y-69921197D01*
X134714999Y-69944999D01*
X134665491Y-70005325D01*
X134620026Y-70060724D01*
X134561420Y-70170368D01*
X134549454Y-70192754D01*
X134505997Y-70336015D01*
X134495000Y-70447668D01*
X134495000Y-70447678D01*
X134491324Y-70485000D01*
X134495000Y-70522322D01*
X134495001Y-81877668D01*
X134491324Y-81915000D01*
X134495001Y-81952333D01*
X134505998Y-82063986D01*
X134509035Y-82073997D01*
X134549454Y-82207246D01*
X134620026Y-82339276D01*
X134687361Y-82421323D01*
X134715000Y-82455001D01*
X134743998Y-82478799D01*
X136006201Y-83741003D01*
X136029999Y-83770001D01*
X136145724Y-83864974D01*
X136151928Y-83868290D01*
X136151928Y-84430000D01*
X136164188Y-84554482D01*
X136200498Y-84674180D01*
X136259463Y-84784494D01*
X136338815Y-84881185D01*
X136435506Y-84960537D01*
X136545820Y-85019502D01*
X136665518Y-85055812D01*
X136790000Y-85068072D01*
X137530000Y-85068072D01*
X137654482Y-85055812D01*
X137774180Y-85019502D01*
X137795000Y-85008373D01*
X137815820Y-85019502D01*
X137935518Y-85055812D01*
X138060000Y-85068072D01*
X138800000Y-85068072D01*
X138924482Y-85055812D01*
X139044180Y-85019502D01*
X139065000Y-85008373D01*
X139085820Y-85019502D01*
X139205518Y-85055812D01*
X139228250Y-85058051D01*
X139771200Y-85601002D01*
X139794999Y-85630001D01*
X139823997Y-85653799D01*
X139910724Y-85724974D01*
X140042753Y-85795546D01*
X140186014Y-85839003D01*
X140335000Y-85853677D01*
X140372333Y-85850000D01*
X156776289Y-85850000D01*
X156820226Y-85893937D01*
X156989744Y-86007205D01*
X157178102Y-86085226D01*
X157378061Y-86125000D01*
X157581939Y-86125000D01*
X157781898Y-86085226D01*
X157970256Y-86007205D01*
X158139774Y-85893937D01*
X158283937Y-85749774D01*
X158397205Y-85580256D01*
X158475226Y-85391898D01*
X158515000Y-85191939D01*
X158515000Y-85068072D01*
X159120000Y-85068072D01*
X159244482Y-85055812D01*
X159364180Y-85019502D01*
X159474494Y-84960537D01*
X159571185Y-84881185D01*
X159650537Y-84784494D01*
X159709502Y-84674180D01*
X159745812Y-84554482D01*
X159758072Y-84430000D01*
X159758072Y-84188176D01*
X159918061Y-84220000D01*
X160121939Y-84220000D01*
X160321898Y-84180226D01*
X160510256Y-84102205D01*
X160679774Y-83988937D01*
X160823937Y-83844774D01*
X160937205Y-83675256D01*
X161015226Y-83486898D01*
X161055000Y-83286939D01*
X161055000Y-83083061D01*
X161015226Y-82883102D01*
X160937205Y-82694744D01*
X160823937Y-82525226D01*
X160793710Y-82494999D01*
X162795000Y-82494999D01*
X162795000Y-82561939D01*
X162834774Y-82761898D01*
X162912795Y-82950256D01*
X163026063Y-83119774D01*
X163070001Y-83163712D01*
X163070000Y-83941029D01*
X163004321Y-84021060D01*
X162931726Y-84156875D01*
X162887023Y-84304243D01*
X162871928Y-84457500D01*
X162871928Y-84752500D01*
X162887023Y-84905757D01*
X162931726Y-85053125D01*
X162951436Y-85090000D01*
X162931726Y-85126875D01*
X162887023Y-85274243D01*
X162871928Y-85427500D01*
X162871928Y-85722500D01*
X162887023Y-85875757D01*
X162931726Y-86023125D01*
X163004321Y-86158940D01*
X163102017Y-86277983D01*
X163221060Y-86375679D01*
X163356875Y-86448274D01*
X163504243Y-86492977D01*
X163657500Y-86508072D01*
X164002500Y-86508072D01*
X164019487Y-86506399D01*
X164035498Y-86559180D01*
X164094463Y-86669494D01*
X164173815Y-86766185D01*
X164270506Y-86845537D01*
X164380820Y-86904502D01*
X164500518Y-86940812D01*
X164625000Y-86953072D01*
X164814250Y-86950000D01*
X164973000Y-86791250D01*
X164973000Y-86004500D01*
X164953000Y-86004500D01*
X164953000Y-85846801D01*
X165069302Y-85730500D01*
X165227000Y-85730500D01*
X165227000Y-85750500D01*
X165247000Y-85750500D01*
X165247000Y-86004500D01*
X165227000Y-86004500D01*
X165227000Y-86791250D01*
X165385750Y-86950000D01*
X165575000Y-86953072D01*
X165699482Y-86940812D01*
X165819180Y-86904502D01*
X165929494Y-86845537D01*
X166026185Y-86766185D01*
X166105537Y-86669494D01*
X166164502Y-86559180D01*
X166180513Y-86506399D01*
X166197500Y-86508072D01*
X166542500Y-86508072D01*
X166559487Y-86506399D01*
X166575498Y-86559180D01*
X166634463Y-86669494D01*
X166713815Y-86766185D01*
X166810506Y-86845537D01*
X166920820Y-86904502D01*
X167040518Y-86940812D01*
X167165000Y-86953072D01*
X167354250Y-86950000D01*
X167513000Y-86791250D01*
X167513000Y-86004500D01*
X167493000Y-86004500D01*
X167493000Y-85855307D01*
X167617808Y-85730500D01*
X167767000Y-85730500D01*
X167767000Y-85750500D01*
X167787000Y-85750500D01*
X167787000Y-86004500D01*
X167767000Y-86004500D01*
X167767000Y-86791250D01*
X167925750Y-86950000D01*
X168115000Y-86953072D01*
X168239482Y-86940812D01*
X168359180Y-86904502D01*
X168469494Y-86845537D01*
X168566185Y-86766185D01*
X168645537Y-86669494D01*
X168704502Y-86559180D01*
X168720513Y-86506399D01*
X168737500Y-86508072D01*
X169082500Y-86508072D01*
X169172285Y-86499229D01*
X169211329Y-86572275D01*
X169317885Y-86702115D01*
X169447725Y-86808671D01*
X169595858Y-86887850D01*
X169756592Y-86936608D01*
X169923750Y-86953072D01*
X170180770Y-86953072D01*
X170197698Y-86970000D01*
X134652279Y-86970000D01*
X134502131Y-86955278D01*
X134388754Y-86921047D01*
X134284183Y-86865446D01*
X134192405Y-86790594D01*
X134116909Y-86699335D01*
X134060581Y-86595160D01*
X134025560Y-86482024D01*
X134010000Y-86333979D01*
X134010000Y-66233000D01*
X164335000Y-66233000D01*
X164335000Y-66633000D01*
X165293000Y-66633000D01*
X165293000Y-65442498D01*
X165547000Y-65442498D01*
X165547000Y-66633000D01*
X166505000Y-66633000D01*
X166505000Y-66233000D01*
X172985000Y-66233000D01*
X172985000Y-66633000D01*
X173943000Y-66633000D01*
X173943000Y-65442498D01*
X174197000Y-65442498D01*
X174197000Y-66633000D01*
X175155000Y-66633000D01*
X175155000Y-66233000D01*
X175109376Y-66023767D01*
X175023809Y-65827455D01*
X174901587Y-65651609D01*
X174747408Y-65502986D01*
X174567197Y-65387298D01*
X174364001Y-65315592D01*
X174197000Y-65442498D01*
X173943000Y-65442498D01*
X173775999Y-65315592D01*
X173572803Y-65387298D01*
X173392592Y-65502986D01*
X173238413Y-65651609D01*
X173116191Y-65827455D01*
X173030624Y-66023767D01*
X172985000Y-66233000D01*
X166505000Y-66233000D01*
X166459376Y-66023767D01*
X166373809Y-65827455D01*
X166251587Y-65651609D01*
X166097408Y-65502986D01*
X165917197Y-65387298D01*
X165714001Y-65315592D01*
X165547000Y-65442498D01*
X165293000Y-65442498D01*
X165125999Y-65315592D01*
X164922803Y-65387298D01*
X164742592Y-65502986D01*
X164588413Y-65651609D01*
X164466191Y-65827455D01*
X164380624Y-66023767D01*
X164335000Y-66233000D01*
X134010000Y-66233000D01*
X134010000Y-64802279D01*
X134024722Y-64652131D01*
X134058953Y-64538754D01*
X134114555Y-64434181D01*
X134189407Y-64342404D01*
X134280664Y-64266909D01*
X134384844Y-64210581D01*
X134497976Y-64175560D01*
X134646022Y-64160000D01*
X179240199Y-64160000D01*
X179193998Y-64206201D01*
G37*
X179193998Y-64206201D02*
X179165000Y-64229999D01*
X179141202Y-64258997D01*
X179141201Y-64258998D01*
X179070026Y-64345724D01*
X178999454Y-64477754D01*
X178955998Y-64621015D01*
X178941324Y-64770000D01*
X178945001Y-64807332D01*
X178945000Y-66995198D01*
X178755199Y-67185000D01*
X175155000Y-67185000D01*
X175155000Y-66887000D01*
X174197000Y-66887000D01*
X174197000Y-66907000D01*
X173943000Y-66907000D01*
X173943000Y-66887000D01*
X172985000Y-66887000D01*
X172985000Y-67185000D01*
X166505000Y-67185000D01*
X166505000Y-66887000D01*
X165547000Y-66887000D01*
X165547000Y-66907000D01*
X165293000Y-66907000D01*
X165293000Y-66887000D01*
X164335000Y-66887000D01*
X164335000Y-67287000D01*
X164380624Y-67496233D01*
X164466191Y-67692545D01*
X164509846Y-67755354D01*
X159656504Y-72608697D01*
X159649058Y-72614808D01*
X159596250Y-72562000D01*
X158877000Y-72562000D01*
X158877000Y-72582000D01*
X158623000Y-72582000D01*
X158623000Y-72562000D01*
X158603000Y-72562000D01*
X158603000Y-72308000D01*
X158623000Y-72308000D01*
X158623000Y-72288000D01*
X158877000Y-72288000D01*
X158877000Y-72308000D01*
X159596250Y-72308000D01*
X159755000Y-72149250D01*
X159758072Y-71235000D01*
X159745812Y-71110518D01*
X159709502Y-70990820D01*
X159682040Y-70939442D01*
X159745226Y-70786898D01*
X159785000Y-70586939D01*
X159785000Y-70383061D01*
X159745226Y-70183102D01*
X159682040Y-70030558D01*
X159709502Y-69979180D01*
X159745812Y-69859482D01*
X159758072Y-69735000D01*
X159758072Y-67335000D01*
X159745812Y-67210518D01*
X159709502Y-67090820D01*
X159650537Y-66980506D01*
X159571185Y-66883815D01*
X159474494Y-66804463D01*
X159364180Y-66745498D01*
X159244482Y-66709188D01*
X159120000Y-66696928D01*
X158380000Y-66696928D01*
X158255518Y-66709188D01*
X158135820Y-66745498D01*
X158115000Y-66756627D01*
X158094180Y-66745498D01*
X157974482Y-66709188D01*
X157850000Y-66696928D01*
X157110000Y-66696928D01*
X156985518Y-66709188D01*
X156865820Y-66745498D01*
X156845000Y-66756627D01*
X156824180Y-66745498D01*
X156704482Y-66709188D01*
X156580000Y-66696928D01*
X155840000Y-66696928D01*
X155715518Y-66709188D01*
X155595820Y-66745498D01*
X155575000Y-66756627D01*
X155554180Y-66745498D01*
X155434482Y-66709188D01*
X155310000Y-66696928D01*
X154570000Y-66696928D01*
X154445518Y-66709188D01*
X154325820Y-66745498D01*
X154305000Y-66756627D01*
X154284180Y-66745498D01*
X154164482Y-66709188D01*
X154040000Y-66696928D01*
X153300000Y-66696928D01*
X153175518Y-66709188D01*
X153055820Y-66745498D01*
X152945506Y-66804463D01*
X152848815Y-66883815D01*
X152769463Y-66980506D01*
X152710498Y-67090820D01*
X152674188Y-67210518D01*
X152661928Y-67335000D01*
X152661928Y-69735000D01*
X152674188Y-69859482D01*
X152710498Y-69979180D01*
X152737960Y-70030558D01*
X152674774Y-70183102D01*
X152635000Y-70383061D01*
X152635000Y-70586939D01*
X152674774Y-70786898D01*
X152737960Y-70939442D01*
X152710498Y-70990820D01*
X152674188Y-71110518D01*
X152661928Y-71235000D01*
X152661928Y-71386824D01*
X152501939Y-71355000D01*
X152298061Y-71355000D01*
X152098102Y-71394774D01*
X151909744Y-71472795D01*
X151740226Y-71586063D01*
X151596063Y-71730226D01*
X151482795Y-71899744D01*
X151404774Y-72088102D01*
X151365000Y-72288061D01*
X151365000Y-72491939D01*
X151404774Y-72691898D01*
X151482795Y-72880256D01*
X151596063Y-73049774D01*
X151740226Y-73193937D01*
X151909744Y-73307205D01*
X152098102Y-73385226D01*
X152298061Y-73425000D01*
X152501939Y-73425000D01*
X152661928Y-73393176D01*
X152661928Y-73635000D01*
X152674188Y-73759482D01*
X152710498Y-73879180D01*
X152769463Y-73989494D01*
X152848815Y-74086185D01*
X152910001Y-74136399D01*
X152910001Y-74257668D01*
X152906324Y-74295000D01*
X152910001Y-74332333D01*
X152920998Y-74443986D01*
X152928889Y-74469999D01*
X152964454Y-74587246D01*
X153035026Y-74719276D01*
X153093509Y-74790537D01*
X153130000Y-74835001D01*
X153158998Y-74858799D01*
X153741200Y-75441002D01*
X153764999Y-75470001D01*
X153793997Y-75493799D01*
X153880724Y-75564974D01*
X154012753Y-75635546D01*
X154156014Y-75679003D01*
X154305000Y-75693677D01*
X154342333Y-75690000D01*
X159260001Y-75690000D01*
X159260001Y-77508896D01*
X159244482Y-77504188D01*
X159120000Y-77491928D01*
X158380000Y-77491928D01*
X158255518Y-77504188D01*
X158135820Y-77540498D01*
X158115000Y-77551627D01*
X158094180Y-77540498D01*
X157974482Y-77504188D01*
X157850000Y-77491928D01*
X157110000Y-77491928D01*
X156985518Y-77504188D01*
X156865820Y-77540498D01*
X156845000Y-77551627D01*
X156824180Y-77540498D01*
X156704482Y-77504188D01*
X156580000Y-77491928D01*
X155840000Y-77491928D01*
X155715518Y-77504188D01*
X155595820Y-77540498D01*
X155575000Y-77551627D01*
X155554180Y-77540498D01*
X155434482Y-77504188D01*
X155310000Y-77491928D01*
X154570000Y-77491928D01*
X154445518Y-77504188D01*
X154325820Y-77540498D01*
X154305000Y-77551627D01*
X154284180Y-77540498D01*
X154164482Y-77504188D01*
X154040000Y-77491928D01*
X153300000Y-77491928D01*
X153175518Y-77504188D01*
X153055820Y-77540498D01*
X152945506Y-77599463D01*
X152848815Y-77678815D01*
X152769463Y-77775506D01*
X152710498Y-77885820D01*
X152674188Y-78005518D01*
X152661928Y-78130000D01*
X152661928Y-80276824D01*
X152501939Y-80245000D01*
X152298061Y-80245000D01*
X152098102Y-80284774D01*
X151909744Y-80362795D01*
X151740226Y-80476063D01*
X151596063Y-80620226D01*
X151482795Y-80789744D01*
X151404774Y-80978102D01*
X151365000Y-81178061D01*
X151365000Y-81381939D01*
X151404774Y-81581898D01*
X151482795Y-81770256D01*
X151596063Y-81939774D01*
X151640000Y-81983711D01*
X151640000Y-82512677D01*
X151636324Y-82550000D01*
X151640000Y-82587322D01*
X151640000Y-82587332D01*
X151650997Y-82698985D01*
X151683376Y-82805725D01*
X151694454Y-82842246D01*
X151765026Y-82974276D01*
X151766452Y-82976013D01*
X151859999Y-83090001D01*
X151889002Y-83113803D01*
X152516201Y-83741002D01*
X152539999Y-83770001D01*
X152655724Y-83864974D01*
X152661928Y-83868290D01*
X152661928Y-84330000D01*
X143248072Y-84330000D01*
X143248072Y-83868290D01*
X143254276Y-83864974D01*
X143370001Y-83770001D01*
X143393804Y-83740997D01*
X143445998Y-83688803D01*
X143475002Y-83665000D01*
X143569975Y-83549275D01*
X143640547Y-83417246D01*
X143684004Y-83273985D01*
X143695001Y-83162332D01*
X143695001Y-83162321D01*
X143698677Y-83124999D01*
X143695001Y-83087676D01*
X143695001Y-77907321D01*
X143698677Y-77869998D01*
X143695001Y-77832676D01*
X143695001Y-77832666D01*
X143684004Y-77721013D01*
X143640547Y-77577752D01*
X143569975Y-77445723D01*
X143475002Y-77329998D01*
X143445999Y-77306196D01*
X143098806Y-76959003D01*
X143075003Y-76929999D01*
X142959278Y-76835026D01*
X142827249Y-76764454D01*
X142683988Y-76720997D01*
X142572335Y-76710000D01*
X142572324Y-76710000D01*
X142535002Y-76706324D01*
X142497680Y-76710000D01*
X141919802Y-76710000D01*
X141635001Y-76425199D01*
X141635001Y-75403967D01*
X146320000Y-75403967D01*
X146320000Y-75726033D01*
X146382832Y-76041912D01*
X146506082Y-76339463D01*
X146685013Y-76607252D01*
X146912748Y-76834987D01*
X147180537Y-77013918D01*
X147478088Y-77137168D01*
X147793967Y-77200000D01*
X148116033Y-77200000D01*
X148431912Y-77137168D01*
X148729463Y-77013918D01*
X148997252Y-76834987D01*
X149224987Y-76607252D01*
X149403918Y-76339463D01*
X149527168Y-76041912D01*
X149590000Y-75726033D01*
X149590000Y-75403967D01*
X149527168Y-75088088D01*
X149403918Y-74790537D01*
X149224987Y-74522748D01*
X148997252Y-74295013D01*
X148729463Y-74116082D01*
X148431912Y-73992832D01*
X148116033Y-73930000D01*
X147793967Y-73930000D01*
X147478088Y-73992832D01*
X147180537Y-74116082D01*
X146912748Y-74295013D01*
X146685013Y-74522748D01*
X146506082Y-74790537D01*
X146382832Y-75088088D01*
X146320000Y-75403967D01*
X141635001Y-75403967D01*
X141635001Y-72476753D01*
X141806842Y-72547932D01*
X142093740Y-72605000D01*
X142386260Y-72605000D01*
X142673158Y-72547932D01*
X142943411Y-72435990D01*
X143186632Y-72273475D01*
X143393475Y-72066632D01*
X143555990Y-71823411D01*
X143667932Y-71553158D01*
X143725000Y-71266260D01*
X143725000Y-70973740D01*
X143667932Y-70686842D01*
X143555990Y-70416589D01*
X143393475Y-70173368D01*
X143186632Y-69966525D01*
X143010594Y-69848900D01*
X143240269Y-69677588D01*
X143435178Y-69461355D01*
X143584157Y-69211252D01*
X143681481Y-68936891D01*
X143560814Y-68707000D01*
X142367000Y-68707000D01*
X142367000Y-68727000D01*
X142113000Y-68727000D01*
X142113000Y-68707000D01*
X142093000Y-68707000D01*
X142093000Y-68453000D01*
X142113000Y-68453000D01*
X142113000Y-67259845D01*
X142367000Y-67259845D01*
X142367000Y-68453000D01*
X143560814Y-68453000D01*
X143681481Y-68223109D01*
X143584157Y-67948748D01*
X143435178Y-67698645D01*
X143240269Y-67482412D01*
X143006920Y-67308359D01*
X142744099Y-67183175D01*
X142596890Y-67138524D01*
X142367000Y-67259845D01*
X142113000Y-67259845D01*
X141883110Y-67138524D01*
X141735901Y-67183175D01*
X141473080Y-67308359D01*
X141239731Y-67482412D01*
X141044822Y-67698645D01*
X140975195Y-67815534D01*
X140853475Y-67633368D01*
X140646632Y-67426525D01*
X140403411Y-67264010D01*
X140133158Y-67152068D01*
X139846260Y-67095000D01*
X139553740Y-67095000D01*
X139266842Y-67152068D01*
X138996589Y-67264010D01*
X138753368Y-67426525D01*
X138546525Y-67633368D01*
X138430000Y-67807760D01*
X138313475Y-67633368D01*
X138106632Y-67426525D01*
X137863411Y-67264010D01*
X137593158Y-67152068D01*
X137306260Y-67095000D01*
X137013740Y-67095000D01*
X136726842Y-67152068D01*
X136456589Y-67264010D01*
X136213368Y-67426525D01*
X136006525Y-67633368D01*
X135844010Y-67876589D01*
X135732068Y-68146842D01*
X135675000Y-68433740D01*
X135675000Y-68726260D01*
X135732068Y-69013158D01*
X135767376Y-69098400D01*
X135741014Y-69100997D01*
X135597753Y-69144454D01*
X135465724Y-69215026D01*
X135349999Y-69309999D01*
X135326200Y-69338998D01*
X134744002Y-69921197D01*
X134714999Y-69944999D01*
X134665491Y-70005325D01*
X134620026Y-70060724D01*
X134561420Y-70170368D01*
X134549454Y-70192754D01*
X134505997Y-70336015D01*
X134495000Y-70447668D01*
X134495000Y-70447678D01*
X134491324Y-70485000D01*
X134495000Y-70522322D01*
X134495001Y-81877668D01*
X134491324Y-81915000D01*
X134495001Y-81952333D01*
X134505998Y-82063986D01*
X134509035Y-82073997D01*
X134549454Y-82207246D01*
X134620026Y-82339276D01*
X134687361Y-82421323D01*
X134715000Y-82455001D01*
X134743998Y-82478799D01*
X136006201Y-83741003D01*
X136029999Y-83770001D01*
X136145724Y-83864974D01*
X136151928Y-83868290D01*
X136151928Y-84430000D01*
X136164188Y-84554482D01*
X136200498Y-84674180D01*
X136259463Y-84784494D01*
X136338815Y-84881185D01*
X136435506Y-84960537D01*
X136545820Y-85019502D01*
X136665518Y-85055812D01*
X136790000Y-85068072D01*
X137530000Y-85068072D01*
X137654482Y-85055812D01*
X137774180Y-85019502D01*
X137795000Y-85008373D01*
X137815820Y-85019502D01*
X137935518Y-85055812D01*
X138060000Y-85068072D01*
X138800000Y-85068072D01*
X138924482Y-85055812D01*
X139044180Y-85019502D01*
X139065000Y-85008373D01*
X139085820Y-85019502D01*
X139205518Y-85055812D01*
X139228250Y-85058051D01*
X139771200Y-85601002D01*
X139794999Y-85630001D01*
X139823997Y-85653799D01*
X139910724Y-85724974D01*
X140042753Y-85795546D01*
X140186014Y-85839003D01*
X140335000Y-85853677D01*
X140372333Y-85850000D01*
X156776289Y-85850000D01*
X156820226Y-85893937D01*
X156989744Y-86007205D01*
X157178102Y-86085226D01*
X157378061Y-86125000D01*
X157581939Y-86125000D01*
X157781898Y-86085226D01*
X157970256Y-86007205D01*
X158139774Y-85893937D01*
X158283937Y-85749774D01*
X158397205Y-85580256D01*
X158475226Y-85391898D01*
X158515000Y-85191939D01*
X158515000Y-85068072D01*
X159120000Y-85068072D01*
X159244482Y-85055812D01*
X159364180Y-85019502D01*
X159474494Y-84960537D01*
X159571185Y-84881185D01*
X159650537Y-84784494D01*
X159709502Y-84674180D01*
X159745812Y-84554482D01*
X159758072Y-84430000D01*
X159758072Y-84188176D01*
X159918061Y-84220000D01*
X160121939Y-84220000D01*
X160321898Y-84180226D01*
X160510256Y-84102205D01*
X160679774Y-83988937D01*
X160823937Y-83844774D01*
X160937205Y-83675256D01*
X161015226Y-83486898D01*
X161055000Y-83286939D01*
X161055000Y-83083061D01*
X161015226Y-82883102D01*
X160937205Y-82694744D01*
X160823937Y-82525226D01*
X160793710Y-82494999D01*
X162795000Y-82494999D01*
X162795000Y-82561939D01*
X162834774Y-82761898D01*
X162912795Y-82950256D01*
X163026063Y-83119774D01*
X163070001Y-83163712D01*
X163070000Y-83941029D01*
X163004321Y-84021060D01*
X162931726Y-84156875D01*
X162887023Y-84304243D01*
X162871928Y-84457500D01*
X162871928Y-84752500D01*
X162887023Y-84905757D01*
X162931726Y-85053125D01*
X162951436Y-85090000D01*
X162931726Y-85126875D01*
X162887023Y-85274243D01*
X162871928Y-85427500D01*
X162871928Y-85722500D01*
X162887023Y-85875757D01*
X162931726Y-86023125D01*
X163004321Y-86158940D01*
X163102017Y-86277983D01*
X163221060Y-86375679D01*
X163356875Y-86448274D01*
X163504243Y-86492977D01*
X163657500Y-86508072D01*
X164002500Y-86508072D01*
X164019487Y-86506399D01*
X164035498Y-86559180D01*
X164094463Y-86669494D01*
X164173815Y-86766185D01*
X164270506Y-86845537D01*
X164380820Y-86904502D01*
X164500518Y-86940812D01*
X164625000Y-86953072D01*
X164814250Y-86950000D01*
X164973000Y-86791250D01*
X164973000Y-86004500D01*
X164953000Y-86004500D01*
X164953000Y-85846801D01*
X165069302Y-85730500D01*
X165227000Y-85730500D01*
X165227000Y-85750500D01*
X165247000Y-85750500D01*
X165247000Y-86004500D01*
X165227000Y-86004500D01*
X165227000Y-86791250D01*
X165385750Y-86950000D01*
X165575000Y-86953072D01*
X165699482Y-86940812D01*
X165819180Y-86904502D01*
X165929494Y-86845537D01*
X166026185Y-86766185D01*
X166105537Y-86669494D01*
X166164502Y-86559180D01*
X166180513Y-86506399D01*
X166197500Y-86508072D01*
X166542500Y-86508072D01*
X166559487Y-86506399D01*
X166575498Y-86559180D01*
X166634463Y-86669494D01*
X166713815Y-86766185D01*
X166810506Y-86845537D01*
X166920820Y-86904502D01*
X167040518Y-86940812D01*
X167165000Y-86953072D01*
X167354250Y-86950000D01*
X167513000Y-86791250D01*
X167513000Y-86004500D01*
X167493000Y-86004500D01*
X167493000Y-85855307D01*
X167617808Y-85730500D01*
X167767000Y-85730500D01*
X167767000Y-85750500D01*
X167787000Y-85750500D01*
X167787000Y-86004500D01*
X167767000Y-86004500D01*
X167767000Y-86791250D01*
X167925750Y-86950000D01*
X168115000Y-86953072D01*
X168239482Y-86940812D01*
X168359180Y-86904502D01*
X168469494Y-86845537D01*
X168566185Y-86766185D01*
X168645537Y-86669494D01*
X168704502Y-86559180D01*
X168720513Y-86506399D01*
X168737500Y-86508072D01*
X169082500Y-86508072D01*
X169172285Y-86499229D01*
X169211329Y-86572275D01*
X169317885Y-86702115D01*
X169447725Y-86808671D01*
X169595858Y-86887850D01*
X169756592Y-86936608D01*
X169923750Y-86953072D01*
X170180770Y-86953072D01*
X170197698Y-86970000D01*
X134652279Y-86970000D01*
X134502131Y-86955278D01*
X134388754Y-86921047D01*
X134284183Y-86865446D01*
X134192405Y-86790594D01*
X134116909Y-86699335D01*
X134060581Y-86595160D01*
X134025560Y-86482024D01*
X134010000Y-86333979D01*
X134010000Y-66233000D01*
X164335000Y-66233000D01*
X164335000Y-66633000D01*
X165293000Y-66633000D01*
X165293000Y-65442498D01*
X165547000Y-65442498D01*
X165547000Y-66633000D01*
X166505000Y-66633000D01*
X166505000Y-66233000D01*
X172985000Y-66233000D01*
X172985000Y-66633000D01*
X173943000Y-66633000D01*
X173943000Y-65442498D01*
X174197000Y-65442498D01*
X174197000Y-66633000D01*
X175155000Y-66633000D01*
X175155000Y-66233000D01*
X175109376Y-66023767D01*
X175023809Y-65827455D01*
X174901587Y-65651609D01*
X174747408Y-65502986D01*
X174567197Y-65387298D01*
X174364001Y-65315592D01*
X174197000Y-65442498D01*
X173943000Y-65442498D01*
X173775999Y-65315592D01*
X173572803Y-65387298D01*
X173392592Y-65502986D01*
X173238413Y-65651609D01*
X173116191Y-65827455D01*
X173030624Y-66023767D01*
X172985000Y-66233000D01*
X166505000Y-66233000D01*
X166459376Y-66023767D01*
X166373809Y-65827455D01*
X166251587Y-65651609D01*
X166097408Y-65502986D01*
X165917197Y-65387298D01*
X165714001Y-65315592D01*
X165547000Y-65442498D01*
X165293000Y-65442498D01*
X165125999Y-65315592D01*
X164922803Y-65387298D01*
X164742592Y-65502986D01*
X164588413Y-65651609D01*
X164466191Y-65827455D01*
X164380624Y-66023767D01*
X164335000Y-66233000D01*
X134010000Y-66233000D01*
X134010000Y-64802279D01*
X134024722Y-64652131D01*
X134058953Y-64538754D01*
X134114555Y-64434181D01*
X134189407Y-64342404D01*
X134280664Y-64266909D01*
X134384844Y-64210581D01*
X134497976Y-64175560D01*
X134646022Y-64160000D01*
X179240199Y-64160000D01*
X179193998Y-64206201D01*
G36*
X180887000Y-65828000D02*
G01*
X180907000Y-65828000D01*
X180907000Y-66082000D01*
X180887000Y-66082000D01*
X180887000Y-67206250D01*
X181045750Y-67365000D01*
X181260000Y-67368072D01*
X181384482Y-67355812D01*
X181504180Y-67319502D01*
X181610000Y-67262939D01*
X181700001Y-67311046D01*
X181700001Y-67699373D01*
X181585226Y-67776063D01*
X181441063Y-67920226D01*
X181327795Y-68089744D01*
X181249774Y-68278102D01*
X181210000Y-68478061D01*
X181210000Y-68681939D01*
X181249774Y-68881898D01*
X181327795Y-69070256D01*
X181441063Y-69239774D01*
X181585226Y-69383937D01*
X181700001Y-69460627D01*
X181700001Y-69848954D01*
X181610000Y-69897061D01*
X181504180Y-69840498D01*
X181384482Y-69804188D01*
X181260000Y-69791928D01*
X181045750Y-69795000D01*
X180887000Y-69953750D01*
X180887000Y-71078000D01*
X180907000Y-71078000D01*
X180907000Y-71332000D01*
X180887000Y-71332000D01*
X180887000Y-72456250D01*
X181045750Y-72615000D01*
X181260000Y-72618072D01*
X181384482Y-72605812D01*
X181504180Y-72569502D01*
X181610000Y-72512939D01*
X181715820Y-72569502D01*
X181835518Y-72605812D01*
X181960000Y-72618072D01*
X182960000Y-72618072D01*
X183084482Y-72605812D01*
X183204180Y-72569502D01*
X183314494Y-72510537D01*
X183411185Y-72431185D01*
X183490000Y-72335148D01*
X183490001Y-86327711D01*
X183475278Y-86477869D01*
X183441047Y-86591246D01*
X183385446Y-86695817D01*
X183310594Y-86787595D01*
X183219335Y-86863091D01*
X183115160Y-86919419D01*
X183002024Y-86954440D01*
X182853979Y-86970000D01*
X173946295Y-86970000D01*
X174501004Y-86415292D01*
X174530001Y-86391495D01*
X174571703Y-86340681D01*
X174624974Y-86275771D01*
X174695546Y-86143741D01*
X174704264Y-86115001D01*
X174739003Y-86000480D01*
X174750000Y-85888827D01*
X174750000Y-85888817D01*
X174753676Y-85851495D01*
X174750000Y-85814172D01*
X174750000Y-81008790D01*
X174815571Y-80981629D01*
X174985089Y-80868361D01*
X175129252Y-80724198D01*
X175242520Y-80554680D01*
X175320541Y-80366322D01*
X175360315Y-80166363D01*
X175360315Y-79962485D01*
X175320541Y-79762526D01*
X175242520Y-79574168D01*
X175129252Y-79404650D01*
X175082202Y-79357600D01*
X175574802Y-78865000D01*
X180302678Y-78865000D01*
X180340000Y-78868676D01*
X180377322Y-78865000D01*
X180377333Y-78865000D01*
X180488986Y-78854003D01*
X180632247Y-78810546D01*
X180764276Y-78739974D01*
X180880001Y-78645001D01*
X180903804Y-78615997D01*
X181196729Y-78323072D01*
X182460000Y-78323072D01*
X182584482Y-78310812D01*
X182704180Y-78274502D01*
X182814494Y-78215537D01*
X182911185Y-78136185D01*
X182990537Y-78039494D01*
X183049502Y-77929180D01*
X183085812Y-77809482D01*
X183098072Y-77685000D01*
X183098072Y-75985000D01*
X183085812Y-75860518D01*
X183049502Y-75740820D01*
X182990537Y-75630506D01*
X182911185Y-75533815D01*
X182814494Y-75454463D01*
X182704180Y-75395498D01*
X182584482Y-75359188D01*
X182460000Y-75346928D01*
X180760000Y-75346928D01*
X180635518Y-75359188D01*
X180515820Y-75395498D01*
X180405506Y-75454463D01*
X180308815Y-75533815D01*
X180229463Y-75630506D01*
X180170498Y-75740820D01*
X180148487Y-75813380D01*
X180016632Y-75681525D01*
X179773411Y-75519010D01*
X179503158Y-75407068D01*
X179216260Y-75350000D01*
X178923740Y-75350000D01*
X178636842Y-75407068D01*
X178366589Y-75519010D01*
X178123368Y-75681525D01*
X177916525Y-75888368D01*
X177754010Y-76131589D01*
X177642068Y-76401842D01*
X177607626Y-76574990D01*
X173708240Y-76574990D01*
X173666250Y-76533000D01*
X173560996Y-76533000D01*
X173532971Y-76510000D01*
X173560996Y-76487000D01*
X173666250Y-76487000D01*
X173825000Y-76328250D01*
X173813008Y-76222170D01*
X173790421Y-76153065D01*
X173814371Y-76074113D01*
X173828072Y-75935000D01*
X173828072Y-75785000D01*
X173814371Y-75645887D01*
X173773793Y-75512119D01*
X173707898Y-75388838D01*
X173669566Y-75342131D01*
X173715226Y-75231898D01*
X173755000Y-75031939D01*
X173755000Y-74828061D01*
X173715226Y-74628102D01*
X173637205Y-74439744D01*
X173523937Y-74270226D01*
X173379774Y-74126063D01*
X173210256Y-74012795D01*
X173021898Y-73934774D01*
X172821939Y-73895000D01*
X172618061Y-73895000D01*
X172418102Y-73934774D01*
X172307869Y-73980434D01*
X172261162Y-73942102D01*
X172137881Y-73876207D01*
X172004113Y-73835629D01*
X171865000Y-73821928D01*
X171715000Y-73821928D01*
X171580023Y-73835222D01*
X171138072Y-73393271D01*
X171138072Y-73362500D01*
X171122977Y-73209243D01*
X171078274Y-73061875D01*
X171058564Y-73025000D01*
X171078274Y-72988125D01*
X171122977Y-72840757D01*
X171138072Y-72687500D01*
X171138072Y-72392500D01*
X171122977Y-72239243D01*
X171082255Y-72105000D01*
X171117014Y-72105000D01*
X171307314Y-72067147D01*
X171445000Y-72010116D01*
X171582686Y-72067147D01*
X171772986Y-72105000D01*
X171967014Y-72105000D01*
X172157314Y-72067147D01*
X172295542Y-72009891D01*
X172424384Y-72064589D01*
X172614344Y-72104110D01*
X172808364Y-72105813D01*
X172998989Y-72069632D01*
X173178893Y-71996957D01*
X173194216Y-71988767D01*
X173194954Y-71980000D01*
X179621928Y-71980000D01*
X179634188Y-72104482D01*
X179670498Y-72224180D01*
X179729463Y-72334494D01*
X179808815Y-72431185D01*
X179905506Y-72510537D01*
X180015820Y-72569502D01*
X180135518Y-72605812D01*
X180260000Y-72618072D01*
X180474250Y-72615000D01*
X180633000Y-72456250D01*
X180633000Y-71332000D01*
X179783750Y-71332000D01*
X179625000Y-71490750D01*
X179621928Y-71980000D01*
X173194954Y-71980000D01*
X173210912Y-71790517D01*
X172818899Y-71398504D01*
X172855000Y-71217014D01*
X172855000Y-71047110D01*
X172913748Y-71105858D01*
X172899605Y-71120000D01*
X173049775Y-71270170D01*
X173116191Y-71422545D01*
X173238413Y-71598391D01*
X173392592Y-71747014D01*
X173572803Y-71862702D01*
X173775999Y-71934408D01*
X173943000Y-71807502D01*
X173943000Y-70267000D01*
X174197000Y-70267000D01*
X174197000Y-71807502D01*
X174364001Y-71934408D01*
X174567197Y-71862702D01*
X174747408Y-71747014D01*
X174901587Y-71598391D01*
X175023809Y-71422545D01*
X175109376Y-71226233D01*
X175155000Y-71017000D01*
X175155000Y-70430000D01*
X179621928Y-70430000D01*
X179625000Y-70919250D01*
X179783750Y-71078000D01*
X180633000Y-71078000D01*
X180633000Y-69953750D01*
X180474250Y-69795000D01*
X180260000Y-69791928D01*
X180135518Y-69804188D01*
X180015820Y-69840498D01*
X179905506Y-69899463D01*
X179808815Y-69978815D01*
X179729463Y-70075506D01*
X179670498Y-70185820D01*
X179634188Y-70305518D01*
X179621928Y-70430000D01*
X175155000Y-70430000D01*
X175155000Y-70267000D01*
X174197000Y-70267000D01*
X173943000Y-70267000D01*
X173396608Y-70267000D01*
X173390520Y-70260912D01*
X173588767Y-70244216D01*
X173664589Y-70065616D01*
X173675536Y-70013000D01*
X173943000Y-70013000D01*
X173943000Y-69993000D01*
X174197000Y-69993000D01*
X174197000Y-70013000D01*
X175155000Y-70013000D01*
X175155000Y-69263000D01*
X175109376Y-69053767D01*
X175023809Y-68857455D01*
X174917845Y-68705000D01*
X179032678Y-68705000D01*
X179070000Y-68708676D01*
X179107322Y-68705000D01*
X179107333Y-68705000D01*
X179218986Y-68694003D01*
X179362247Y-68650546D01*
X179494276Y-68579974D01*
X179610001Y-68485001D01*
X179633803Y-68455998D01*
X180216004Y-67873798D01*
X180245001Y-67850001D01*
X180339974Y-67734276D01*
X180410546Y-67602247D01*
X180454003Y-67458986D01*
X180463244Y-67365158D01*
X180474250Y-67365000D01*
X180633000Y-67206250D01*
X180633000Y-66082000D01*
X180613000Y-66082000D01*
X180613000Y-65828000D01*
X180633000Y-65828000D01*
X180633000Y-65808000D01*
X180887000Y-65808000D01*
X180887000Y-65828000D01*
G37*
X180887000Y-65828000D02*
X180907000Y-65828000D01*
X180907000Y-66082000D01*
X180887000Y-66082000D01*
X180887000Y-67206250D01*
X181045750Y-67365000D01*
X181260000Y-67368072D01*
X181384482Y-67355812D01*
X181504180Y-67319502D01*
X181610000Y-67262939D01*
X181700001Y-67311046D01*
X181700001Y-67699373D01*
X181585226Y-67776063D01*
X181441063Y-67920226D01*
X181327795Y-68089744D01*
X181249774Y-68278102D01*
X181210000Y-68478061D01*
X181210000Y-68681939D01*
X181249774Y-68881898D01*
X181327795Y-69070256D01*
X181441063Y-69239774D01*
X181585226Y-69383937D01*
X181700001Y-69460627D01*
X181700001Y-69848954D01*
X181610000Y-69897061D01*
X181504180Y-69840498D01*
X181384482Y-69804188D01*
X181260000Y-69791928D01*
X181045750Y-69795000D01*
X180887000Y-69953750D01*
X180887000Y-71078000D01*
X180907000Y-71078000D01*
X180907000Y-71332000D01*
X180887000Y-71332000D01*
X180887000Y-72456250D01*
X181045750Y-72615000D01*
X181260000Y-72618072D01*
X181384482Y-72605812D01*
X181504180Y-72569502D01*
X181610000Y-72512939D01*
X181715820Y-72569502D01*
X181835518Y-72605812D01*
X181960000Y-72618072D01*
X182960000Y-72618072D01*
X183084482Y-72605812D01*
X183204180Y-72569502D01*
X183314494Y-72510537D01*
X183411185Y-72431185D01*
X183490000Y-72335148D01*
X183490001Y-86327711D01*
X183475278Y-86477869D01*
X183441047Y-86591246D01*
X183385446Y-86695817D01*
X183310594Y-86787595D01*
X183219335Y-86863091D01*
X183115160Y-86919419D01*
X183002024Y-86954440D01*
X182853979Y-86970000D01*
X173946295Y-86970000D01*
X174501004Y-86415292D01*
X174530001Y-86391495D01*
X174571703Y-86340681D01*
X174624974Y-86275771D01*
X174695546Y-86143741D01*
X174704264Y-86115001D01*
X174739003Y-86000480D01*
X174750000Y-85888827D01*
X174750000Y-85888817D01*
X174753676Y-85851495D01*
X174750000Y-85814172D01*
X174750000Y-81008790D01*
X174815571Y-80981629D01*
X174985089Y-80868361D01*
X175129252Y-80724198D01*
X175242520Y-80554680D01*
X175320541Y-80366322D01*
X175360315Y-80166363D01*
X175360315Y-79962485D01*
X175320541Y-79762526D01*
X175242520Y-79574168D01*
X175129252Y-79404650D01*
X175082202Y-79357600D01*
X175574802Y-78865000D01*
X180302678Y-78865000D01*
X180340000Y-78868676D01*
X180377322Y-78865000D01*
X180377333Y-78865000D01*
X180488986Y-78854003D01*
X180632247Y-78810546D01*
X180764276Y-78739974D01*
X180880001Y-78645001D01*
X180903804Y-78615997D01*
X181196729Y-78323072D01*
X182460000Y-78323072D01*
X182584482Y-78310812D01*
X182704180Y-78274502D01*
X182814494Y-78215537D01*
X182911185Y-78136185D01*
X182990537Y-78039494D01*
X183049502Y-77929180D01*
X183085812Y-77809482D01*
X183098072Y-77685000D01*
X183098072Y-75985000D01*
X183085812Y-75860518D01*
X183049502Y-75740820D01*
X182990537Y-75630506D01*
X182911185Y-75533815D01*
X182814494Y-75454463D01*
X182704180Y-75395498D01*
X182584482Y-75359188D01*
X182460000Y-75346928D01*
X180760000Y-75346928D01*
X180635518Y-75359188D01*
X180515820Y-75395498D01*
X180405506Y-75454463D01*
X180308815Y-75533815D01*
X180229463Y-75630506D01*
X180170498Y-75740820D01*
X180148487Y-75813380D01*
X180016632Y-75681525D01*
X179773411Y-75519010D01*
X179503158Y-75407068D01*
X179216260Y-75350000D01*
X178923740Y-75350000D01*
X178636842Y-75407068D01*
X178366589Y-75519010D01*
X178123368Y-75681525D01*
X177916525Y-75888368D01*
X177754010Y-76131589D01*
X177642068Y-76401842D01*
X177607626Y-76574990D01*
X173708240Y-76574990D01*
X173666250Y-76533000D01*
X173560996Y-76533000D01*
X173532971Y-76510000D01*
X173560996Y-76487000D01*
X173666250Y-76487000D01*
X173825000Y-76328250D01*
X173813008Y-76222170D01*
X173790421Y-76153065D01*
X173814371Y-76074113D01*
X173828072Y-75935000D01*
X173828072Y-75785000D01*
X173814371Y-75645887D01*
X173773793Y-75512119D01*
X173707898Y-75388838D01*
X173669566Y-75342131D01*
X173715226Y-75231898D01*
X173755000Y-75031939D01*
X173755000Y-74828061D01*
X173715226Y-74628102D01*
X173637205Y-74439744D01*
X173523937Y-74270226D01*
X173379774Y-74126063D01*
X173210256Y-74012795D01*
X173021898Y-73934774D01*
X172821939Y-73895000D01*
X172618061Y-73895000D01*
X172418102Y-73934774D01*
X172307869Y-73980434D01*
X172261162Y-73942102D01*
X172137881Y-73876207D01*
X172004113Y-73835629D01*
X171865000Y-73821928D01*
X171715000Y-73821928D01*
X171580023Y-73835222D01*
X171138072Y-73393271D01*
X171138072Y-73362500D01*
X171122977Y-73209243D01*
X171078274Y-73061875D01*
X171058564Y-73025000D01*
X171078274Y-72988125D01*
X171122977Y-72840757D01*
X171138072Y-72687500D01*
X171138072Y-72392500D01*
X171122977Y-72239243D01*
X171082255Y-72105000D01*
X171117014Y-72105000D01*
X171307314Y-72067147D01*
X171445000Y-72010116D01*
X171582686Y-72067147D01*
X171772986Y-72105000D01*
X171967014Y-72105000D01*
X172157314Y-72067147D01*
X172295542Y-72009891D01*
X172424384Y-72064589D01*
X172614344Y-72104110D01*
X172808364Y-72105813D01*
X172998989Y-72069632D01*
X173178893Y-71996957D01*
X173194216Y-71988767D01*
X173194954Y-71980000D01*
X179621928Y-71980000D01*
X179634188Y-72104482D01*
X179670498Y-72224180D01*
X179729463Y-72334494D01*
X179808815Y-72431185D01*
X179905506Y-72510537D01*
X180015820Y-72569502D01*
X180135518Y-72605812D01*
X180260000Y-72618072D01*
X180474250Y-72615000D01*
X180633000Y-72456250D01*
X180633000Y-71332000D01*
X179783750Y-71332000D01*
X179625000Y-71490750D01*
X179621928Y-71980000D01*
X173194954Y-71980000D01*
X173210912Y-71790517D01*
X172818899Y-71398504D01*
X172855000Y-71217014D01*
X172855000Y-71047110D01*
X172913748Y-71105858D01*
X172899605Y-71120000D01*
X173049775Y-71270170D01*
X173116191Y-71422545D01*
X173238413Y-71598391D01*
X173392592Y-71747014D01*
X173572803Y-71862702D01*
X173775999Y-71934408D01*
X173943000Y-71807502D01*
X173943000Y-70267000D01*
X174197000Y-70267000D01*
X174197000Y-71807502D01*
X174364001Y-71934408D01*
X174567197Y-71862702D01*
X174747408Y-71747014D01*
X174901587Y-71598391D01*
X175023809Y-71422545D01*
X175109376Y-71226233D01*
X175155000Y-71017000D01*
X175155000Y-70430000D01*
X179621928Y-70430000D01*
X179625000Y-70919250D01*
X179783750Y-71078000D01*
X180633000Y-71078000D01*
X180633000Y-69953750D01*
X180474250Y-69795000D01*
X180260000Y-69791928D01*
X180135518Y-69804188D01*
X180015820Y-69840498D01*
X179905506Y-69899463D01*
X179808815Y-69978815D01*
X179729463Y-70075506D01*
X179670498Y-70185820D01*
X179634188Y-70305518D01*
X179621928Y-70430000D01*
X175155000Y-70430000D01*
X175155000Y-70267000D01*
X174197000Y-70267000D01*
X173943000Y-70267000D01*
X173396608Y-70267000D01*
X173390520Y-70260912D01*
X173588767Y-70244216D01*
X173664589Y-70065616D01*
X173675536Y-70013000D01*
X173943000Y-70013000D01*
X173943000Y-69993000D01*
X174197000Y-69993000D01*
X174197000Y-70013000D01*
X175155000Y-70013000D01*
X175155000Y-69263000D01*
X175109376Y-69053767D01*
X175023809Y-68857455D01*
X174917845Y-68705000D01*
X179032678Y-68705000D01*
X179070000Y-68708676D01*
X179107322Y-68705000D01*
X179107333Y-68705000D01*
X179218986Y-68694003D01*
X179362247Y-68650546D01*
X179494276Y-68579974D01*
X179610001Y-68485001D01*
X179633803Y-68455998D01*
X180216004Y-67873798D01*
X180245001Y-67850001D01*
X180339974Y-67734276D01*
X180410546Y-67602247D01*
X180454003Y-67458986D01*
X180463244Y-67365158D01*
X180474250Y-67365000D01*
X180633000Y-67206250D01*
X180633000Y-66082000D01*
X180613000Y-66082000D01*
X180613000Y-65828000D01*
X180633000Y-65828000D01*
X180633000Y-65808000D01*
X180887000Y-65808000D01*
X180887000Y-65828000D01*
G36*
X156865820Y-81119502D02*
G01*
X156985518Y-81155812D01*
X157110000Y-81168072D01*
X157716987Y-81168072D01*
X157715000Y-81178061D01*
X157715000Y-81381939D01*
X157716987Y-81391928D01*
X157110000Y-81391928D01*
X156985518Y-81404188D01*
X156865820Y-81440498D01*
X156845000Y-81451627D01*
X156824180Y-81440498D01*
X156704482Y-81404188D01*
X156580000Y-81391928D01*
X156495750Y-81395000D01*
X156337000Y-81553750D01*
X156337000Y-83103000D01*
X156357000Y-83103000D01*
X156357000Y-83357000D01*
X156337000Y-83357000D01*
X156337000Y-83377000D01*
X156083000Y-83377000D01*
X156083000Y-83357000D01*
X155067000Y-83357000D01*
X155067000Y-83377000D01*
X154813000Y-83377000D01*
X154813000Y-83357000D01*
X154793000Y-83357000D01*
X154793000Y-83103000D01*
X154813000Y-83103000D01*
X154813000Y-83083000D01*
X155067000Y-83083000D01*
X155067000Y-83103000D01*
X156083000Y-83103000D01*
X156083000Y-81553750D01*
X155964413Y-81435163D01*
X155975000Y-81381939D01*
X155975000Y-81178061D01*
X155973013Y-81168072D01*
X156580000Y-81168072D01*
X156704482Y-81155812D01*
X156824180Y-81119502D01*
X156845000Y-81108373D01*
X156865820Y-81119502D01*
G37*
X156865820Y-81119502D02*
X156985518Y-81155812D01*
X157110000Y-81168072D01*
X157716987Y-81168072D01*
X157715000Y-81178061D01*
X157715000Y-81381939D01*
X157716987Y-81391928D01*
X157110000Y-81391928D01*
X156985518Y-81404188D01*
X156865820Y-81440498D01*
X156845000Y-81451627D01*
X156824180Y-81440498D01*
X156704482Y-81404188D01*
X156580000Y-81391928D01*
X156495750Y-81395000D01*
X156337000Y-81553750D01*
X156337000Y-83103000D01*
X156357000Y-83103000D01*
X156357000Y-83357000D01*
X156337000Y-83357000D01*
X156337000Y-83377000D01*
X156083000Y-83377000D01*
X156083000Y-83357000D01*
X155067000Y-83357000D01*
X155067000Y-83377000D01*
X154813000Y-83377000D01*
X154813000Y-83357000D01*
X154793000Y-83357000D01*
X154793000Y-83103000D01*
X154813000Y-83103000D01*
X154813000Y-83083000D01*
X155067000Y-83083000D01*
X155067000Y-83103000D01*
X156083000Y-83103000D01*
X156083000Y-81553750D01*
X155964413Y-81435163D01*
X155975000Y-81381939D01*
X155975000Y-81178061D01*
X155973013Y-81168072D01*
X156580000Y-81168072D01*
X156704482Y-81155812D01*
X156824180Y-81119502D01*
X156845000Y-81108373D01*
X156865820Y-81119502D01*
G36*
X167290750Y-78250000D02*
G01*
X167325000Y-78253072D01*
X167354991Y-78250118D01*
X167354990Y-79177667D01*
X167351314Y-79214990D01*
X167354990Y-79252312D01*
X167354990Y-79252322D01*
X167365987Y-79363975D01*
X167400874Y-79478985D01*
X167409444Y-79507236D01*
X167480016Y-79639266D01*
X167500321Y-79664007D01*
X167574989Y-79754991D01*
X167603992Y-79778793D01*
X168346201Y-80521002D01*
X168369999Y-80550001D01*
X168398997Y-80573799D01*
X168485723Y-80644974D01*
X168573674Y-80691985D01*
X168617753Y-80715546D01*
X168761014Y-80759003D01*
X168872667Y-80770000D01*
X168872677Y-80770000D01*
X168910000Y-80773676D01*
X168947323Y-80770000D01*
X172760011Y-80770000D01*
X172760010Y-83226928D01*
X172463750Y-83226928D01*
X172296592Y-83243392D01*
X172135858Y-83292150D01*
X172041406Y-83342636D01*
X171990001Y-83279999D01*
X171961004Y-83256202D01*
X171378803Y-82674002D01*
X171355001Y-82644999D01*
X171239276Y-82550026D01*
X171215000Y-82537050D01*
X171215000Y-82358061D01*
X171175226Y-82158102D01*
X171097205Y-81969744D01*
X170983937Y-81800226D01*
X170839774Y-81656063D01*
X170670256Y-81542795D01*
X170481898Y-81464774D01*
X170281939Y-81425000D01*
X170078061Y-81425000D01*
X169878102Y-81464774D01*
X169689744Y-81542795D01*
X169520226Y-81656063D01*
X169376063Y-81800226D01*
X169262795Y-81969744D01*
X169184774Y-82158102D01*
X169145000Y-82358061D01*
X169145000Y-82537050D01*
X169120724Y-82550026D01*
X169004999Y-82644999D01*
X168981200Y-82673998D01*
X168398998Y-83256201D01*
X168370000Y-83279999D01*
X168346202Y-83308997D01*
X168346201Y-83308998D01*
X168318595Y-83342636D01*
X168224142Y-83292150D01*
X168063408Y-83243392D01*
X167896250Y-83226928D01*
X167383750Y-83226928D01*
X167216592Y-83243392D01*
X167055858Y-83292150D01*
X166961406Y-83342636D01*
X166910001Y-83279999D01*
X166881003Y-83256201D01*
X166686756Y-83061955D01*
X166734090Y-83014621D01*
X166847358Y-82845103D01*
X166925379Y-82656745D01*
X166965153Y-82456786D01*
X166965153Y-82385611D01*
X166994964Y-82349286D01*
X167065536Y-82217257D01*
X167108993Y-82073996D01*
X167119990Y-81962343D01*
X167119990Y-81962334D01*
X167123666Y-81925011D01*
X167119990Y-81887688D01*
X167119990Y-78250000D01*
X167132002Y-78250000D01*
X167132002Y-78091252D01*
X167290750Y-78250000D01*
G37*
X167290750Y-78250000D02*
X167325000Y-78253072D01*
X167354991Y-78250118D01*
X167354990Y-79177667D01*
X167351314Y-79214990D01*
X167354990Y-79252312D01*
X167354990Y-79252322D01*
X167365987Y-79363975D01*
X167400874Y-79478985D01*
X167409444Y-79507236D01*
X167480016Y-79639266D01*
X167500321Y-79664007D01*
X167574989Y-79754991D01*
X167603992Y-79778793D01*
X168346201Y-80521002D01*
X168369999Y-80550001D01*
X168398997Y-80573799D01*
X168485723Y-80644974D01*
X168573674Y-80691985D01*
X168617753Y-80715546D01*
X168761014Y-80759003D01*
X168872667Y-80770000D01*
X168872677Y-80770000D01*
X168910000Y-80773676D01*
X168947323Y-80770000D01*
X172760011Y-80770000D01*
X172760010Y-83226928D01*
X172463750Y-83226928D01*
X172296592Y-83243392D01*
X172135858Y-83292150D01*
X172041406Y-83342636D01*
X171990001Y-83279999D01*
X171961004Y-83256202D01*
X171378803Y-82674002D01*
X171355001Y-82644999D01*
X171239276Y-82550026D01*
X171215000Y-82537050D01*
X171215000Y-82358061D01*
X171175226Y-82158102D01*
X171097205Y-81969744D01*
X170983937Y-81800226D01*
X170839774Y-81656063D01*
X170670256Y-81542795D01*
X170481898Y-81464774D01*
X170281939Y-81425000D01*
X170078061Y-81425000D01*
X169878102Y-81464774D01*
X169689744Y-81542795D01*
X169520226Y-81656063D01*
X169376063Y-81800226D01*
X169262795Y-81969744D01*
X169184774Y-82158102D01*
X169145000Y-82358061D01*
X169145000Y-82537050D01*
X169120724Y-82550026D01*
X169004999Y-82644999D01*
X168981200Y-82673998D01*
X168398998Y-83256201D01*
X168370000Y-83279999D01*
X168346202Y-83308997D01*
X168346201Y-83308998D01*
X168318595Y-83342636D01*
X168224142Y-83292150D01*
X168063408Y-83243392D01*
X167896250Y-83226928D01*
X167383750Y-83226928D01*
X167216592Y-83243392D01*
X167055858Y-83292150D01*
X166961406Y-83342636D01*
X166910001Y-83279999D01*
X166881003Y-83256201D01*
X166686756Y-83061955D01*
X166734090Y-83014621D01*
X166847358Y-82845103D01*
X166925379Y-82656745D01*
X166965153Y-82456786D01*
X166965153Y-82385611D01*
X166994964Y-82349286D01*
X167065536Y-82217257D01*
X167108993Y-82073996D01*
X167119990Y-81962343D01*
X167119990Y-81962334D01*
X167123666Y-81925011D01*
X167119990Y-81887688D01*
X167119990Y-78250000D01*
X167132002Y-78250000D01*
X167132002Y-78091252D01*
X167290750Y-78250000D01*
G36*
X165547000Y-70013000D02*
G01*
X165813537Y-70013000D01*
X165820368Y-70048989D01*
X165893043Y-70228893D01*
X165901233Y-70244216D01*
X166099480Y-70260912D01*
X166093392Y-70267000D01*
X165547000Y-70267000D01*
X165547000Y-71807502D01*
X165714001Y-71934408D01*
X165917197Y-71862702D01*
X166097408Y-71747014D01*
X166251587Y-71598391D01*
X166373809Y-71422545D01*
X166440225Y-71270170D01*
X166590395Y-71120000D01*
X166576253Y-71105858D01*
X166635000Y-71047110D01*
X166635000Y-71217014D01*
X166671101Y-71398504D01*
X166279088Y-71790517D01*
X166295784Y-71988767D01*
X166474384Y-72064589D01*
X166664344Y-72104110D01*
X166809811Y-72105387D01*
X165848993Y-73066206D01*
X165819989Y-73090009D01*
X165779781Y-73139003D01*
X165725016Y-73205734D01*
X165709081Y-73235546D01*
X165654444Y-73337764D01*
X165610987Y-73481025D01*
X165599990Y-73592678D01*
X165599990Y-73592688D01*
X165596314Y-73630010D01*
X165599990Y-73667333D01*
X165599991Y-76152657D01*
X165596314Y-76189990D01*
X165599991Y-76227322D01*
X165599990Y-81371329D01*
X165439897Y-81437642D01*
X165270379Y-81550910D01*
X165223045Y-81598244D01*
X164848803Y-81224002D01*
X164825000Y-81194998D01*
X164709275Y-81100025D01*
X164577246Y-81029453D01*
X164433985Y-80985996D01*
X164322332Y-80974999D01*
X164322321Y-80974999D01*
X164284999Y-80971323D01*
X164247677Y-80974999D01*
X160789800Y-80974999D01*
X160780000Y-80965199D01*
X160780000Y-75403967D01*
X162195000Y-75403967D01*
X162195000Y-75726033D01*
X162257832Y-76041912D01*
X162381082Y-76339463D01*
X162560013Y-76607252D01*
X162787748Y-76834987D01*
X163055537Y-77013918D01*
X163353088Y-77137168D01*
X163668967Y-77200000D01*
X163991033Y-77200000D01*
X164306912Y-77137168D01*
X164604463Y-77013918D01*
X164872252Y-76834987D01*
X165099987Y-76607252D01*
X165278918Y-76339463D01*
X165402168Y-76041912D01*
X165465000Y-75726033D01*
X165465000Y-75403967D01*
X165402168Y-75088088D01*
X165278918Y-74790537D01*
X165099987Y-74522748D01*
X164872252Y-74295013D01*
X164604463Y-74116082D01*
X164306912Y-73992832D01*
X163991033Y-73930000D01*
X163668967Y-73930000D01*
X163353088Y-73992832D01*
X163055537Y-74116082D01*
X162787748Y-74295013D01*
X162560013Y-74522748D01*
X162381082Y-74790537D01*
X162257832Y-75088088D01*
X162195000Y-75403967D01*
X160780000Y-75403967D01*
X160780000Y-75307323D01*
X160783676Y-75269998D01*
X160780000Y-75232673D01*
X160780000Y-75232665D01*
X160769003Y-75121012D01*
X160725546Y-74977751D01*
X160719967Y-74967313D01*
X160802475Y-74866777D01*
X160873047Y-74734748D01*
X160916504Y-74591487D01*
X160927501Y-74479834D01*
X160927501Y-74479826D01*
X160931177Y-74442501D01*
X160927501Y-74405176D01*
X160927501Y-73487302D01*
X164147803Y-70267000D01*
X164335000Y-70267000D01*
X164335000Y-71017000D01*
X164380624Y-71226233D01*
X164466191Y-71422545D01*
X164588413Y-71598391D01*
X164742592Y-71747014D01*
X164922803Y-71862702D01*
X165125999Y-71934408D01*
X165293000Y-71807502D01*
X165293000Y-70267000D01*
X164335000Y-70267000D01*
X164147803Y-70267000D01*
X164401804Y-70013000D01*
X165293000Y-70013000D01*
X165293000Y-69993000D01*
X165547000Y-69993000D01*
X165547000Y-70013000D01*
G37*
X165547000Y-70013000D02*
X165813537Y-70013000D01*
X165820368Y-70048989D01*
X165893043Y-70228893D01*
X165901233Y-70244216D01*
X166099480Y-70260912D01*
X166093392Y-70267000D01*
X165547000Y-70267000D01*
X165547000Y-71807502D01*
X165714001Y-71934408D01*
X165917197Y-71862702D01*
X166097408Y-71747014D01*
X166251587Y-71598391D01*
X166373809Y-71422545D01*
X166440225Y-71270170D01*
X166590395Y-71120000D01*
X166576253Y-71105858D01*
X166635000Y-71047110D01*
X166635000Y-71217014D01*
X166671101Y-71398504D01*
X166279088Y-71790517D01*
X166295784Y-71988767D01*
X166474384Y-72064589D01*
X166664344Y-72104110D01*
X166809811Y-72105387D01*
X165848993Y-73066206D01*
X165819989Y-73090009D01*
X165779781Y-73139003D01*
X165725016Y-73205734D01*
X165709081Y-73235546D01*
X165654444Y-73337764D01*
X165610987Y-73481025D01*
X165599990Y-73592678D01*
X165599990Y-73592688D01*
X165596314Y-73630010D01*
X165599990Y-73667333D01*
X165599991Y-76152657D01*
X165596314Y-76189990D01*
X165599991Y-76227322D01*
X165599990Y-81371329D01*
X165439897Y-81437642D01*
X165270379Y-81550910D01*
X165223045Y-81598244D01*
X164848803Y-81224002D01*
X164825000Y-81194998D01*
X164709275Y-81100025D01*
X164577246Y-81029453D01*
X164433985Y-80985996D01*
X164322332Y-80974999D01*
X164322321Y-80974999D01*
X164284999Y-80971323D01*
X164247677Y-80974999D01*
X160789800Y-80974999D01*
X160780000Y-80965199D01*
X160780000Y-75403967D01*
X162195000Y-75403967D01*
X162195000Y-75726033D01*
X162257832Y-76041912D01*
X162381082Y-76339463D01*
X162560013Y-76607252D01*
X162787748Y-76834987D01*
X163055537Y-77013918D01*
X163353088Y-77137168D01*
X163668967Y-77200000D01*
X163991033Y-77200000D01*
X164306912Y-77137168D01*
X164604463Y-77013918D01*
X164872252Y-76834987D01*
X165099987Y-76607252D01*
X165278918Y-76339463D01*
X165402168Y-76041912D01*
X165465000Y-75726033D01*
X165465000Y-75403967D01*
X165402168Y-75088088D01*
X165278918Y-74790537D01*
X165099987Y-74522748D01*
X164872252Y-74295013D01*
X164604463Y-74116082D01*
X164306912Y-73992832D01*
X163991033Y-73930000D01*
X163668967Y-73930000D01*
X163353088Y-73992832D01*
X163055537Y-74116082D01*
X162787748Y-74295013D01*
X162560013Y-74522748D01*
X162381082Y-74790537D01*
X162257832Y-75088088D01*
X162195000Y-75403967D01*
X160780000Y-75403967D01*
X160780000Y-75307323D01*
X160783676Y-75269998D01*
X160780000Y-75232673D01*
X160780000Y-75232665D01*
X160769003Y-75121012D01*
X160725546Y-74977751D01*
X160719967Y-74967313D01*
X160802475Y-74866777D01*
X160873047Y-74734748D01*
X160916504Y-74591487D01*
X160927501Y-74479834D01*
X160927501Y-74479826D01*
X160931177Y-74442501D01*
X160927501Y-74405176D01*
X160927501Y-73487302D01*
X164147803Y-70267000D01*
X164335000Y-70267000D01*
X164335000Y-71017000D01*
X164380624Y-71226233D01*
X164466191Y-71422545D01*
X164588413Y-71598391D01*
X164742592Y-71747014D01*
X164922803Y-71862702D01*
X165125999Y-71934408D01*
X165293000Y-71807502D01*
X165293000Y-70267000D01*
X164335000Y-70267000D01*
X164147803Y-70267000D01*
X164401804Y-70013000D01*
X165293000Y-70013000D01*
X165293000Y-69993000D01*
X165547000Y-69993000D01*
X165547000Y-70013000D01*
G36*
X138753368Y-72273475D02*
G01*
X138996589Y-72435990D01*
X139233274Y-72534028D01*
X139232796Y-72534744D01*
X139154775Y-72723102D01*
X139115001Y-72923061D01*
X139115001Y-73126939D01*
X139154775Y-73326898D01*
X139232796Y-73515256D01*
X139346064Y-73684774D01*
X139390002Y-73728712D01*
X139390001Y-77083062D01*
X139347205Y-76979744D01*
X139233937Y-76810226D01*
X139089774Y-76666063D01*
X138920256Y-76552795D01*
X138731898Y-76474774D01*
X138531939Y-76435000D01*
X138328061Y-76435000D01*
X138128102Y-76474774D01*
X137939744Y-76552795D01*
X137770226Y-76666063D01*
X137626063Y-76810226D01*
X137512795Y-76979744D01*
X137434774Y-77168102D01*
X137395000Y-77368061D01*
X137395000Y-77545750D01*
X137287000Y-77653750D01*
X137287000Y-79203000D01*
X137307000Y-79203000D01*
X137307000Y-79457000D01*
X137287000Y-79457000D01*
X137287000Y-79477000D01*
X137033000Y-79477000D01*
X137033000Y-79457000D01*
X137013000Y-79457000D01*
X137013000Y-79203000D01*
X137033000Y-79203000D01*
X137033000Y-77653750D01*
X136874250Y-77495000D01*
X136790000Y-77491928D01*
X136665518Y-77504188D01*
X136545820Y-77540498D01*
X136465010Y-77583693D01*
X136465010Y-72608072D01*
X138010000Y-72608072D01*
X138134482Y-72595812D01*
X138254180Y-72559502D01*
X138364494Y-72500537D01*
X138461185Y-72421185D01*
X138540537Y-72324494D01*
X138599502Y-72214180D01*
X138621513Y-72141620D01*
X138753368Y-72273475D01*
G37*
X138753368Y-72273475D02*
X138996589Y-72435990D01*
X139233274Y-72534028D01*
X139232796Y-72534744D01*
X139154775Y-72723102D01*
X139115001Y-72923061D01*
X139115001Y-73126939D01*
X139154775Y-73326898D01*
X139232796Y-73515256D01*
X139346064Y-73684774D01*
X139390002Y-73728712D01*
X139390001Y-77083062D01*
X139347205Y-76979744D01*
X139233937Y-76810226D01*
X139089774Y-76666063D01*
X138920256Y-76552795D01*
X138731898Y-76474774D01*
X138531939Y-76435000D01*
X138328061Y-76435000D01*
X138128102Y-76474774D01*
X137939744Y-76552795D01*
X137770226Y-76666063D01*
X137626063Y-76810226D01*
X137512795Y-76979744D01*
X137434774Y-77168102D01*
X137395000Y-77368061D01*
X137395000Y-77545750D01*
X137287000Y-77653750D01*
X137287000Y-79203000D01*
X137307000Y-79203000D01*
X137307000Y-79457000D01*
X137287000Y-79457000D01*
X137287000Y-79477000D01*
X137033000Y-79477000D01*
X137033000Y-79457000D01*
X137013000Y-79457000D01*
X137013000Y-79203000D01*
X137033000Y-79203000D01*
X137033000Y-77653750D01*
X136874250Y-77495000D01*
X136790000Y-77491928D01*
X136665518Y-77504188D01*
X136545820Y-77540498D01*
X136465010Y-77583693D01*
X136465010Y-72608072D01*
X138010000Y-72608072D01*
X138134482Y-72595812D01*
X138254180Y-72559502D01*
X138364494Y-72500537D01*
X138461185Y-72421185D01*
X138540537Y-72324494D01*
X138599502Y-72214180D01*
X138621513Y-72141620D01*
X138753368Y-72273475D01*
G36*
X167152000Y-77447000D02*
G01*
X167132000Y-77447000D01*
X167132000Y-77467000D01*
X167119990Y-77467000D01*
X167119990Y-77283072D01*
X167152000Y-77283072D01*
X167152000Y-77447000D01*
G37*
X167152000Y-77447000D02*
X167132000Y-77447000D01*
X167132000Y-77467000D01*
X167119990Y-77467000D01*
X167119990Y-77283072D01*
X167152000Y-77283072D01*
X167152000Y-77447000D01*
G36*
X170942000Y-76708000D02*
G01*
X170962000Y-76708000D01*
X170962000Y-76962000D01*
X170942000Y-76962000D01*
X170942000Y-76982000D01*
X170688000Y-76982000D01*
X170688000Y-76962000D01*
X170668000Y-76962000D01*
X170668000Y-76708000D01*
X170688000Y-76708000D01*
X170688000Y-76688000D01*
X170942000Y-76688000D01*
X170942000Y-76708000D01*
G37*
X170942000Y-76708000D02*
X170962000Y-76708000D01*
X170962000Y-76962000D01*
X170942000Y-76962000D01*
X170942000Y-76982000D01*
X170688000Y-76982000D01*
X170688000Y-76962000D01*
X170668000Y-76962000D01*
X170668000Y-76708000D01*
X170688000Y-76708000D01*
X170688000Y-76688000D01*
X170942000Y-76688000D01*
X170942000Y-76708000D01*
G36*
X167132000Y-74318000D02*
G01*
X167152000Y-74318000D01*
X167152000Y-74481928D01*
X167119990Y-74481928D01*
X167119990Y-74298000D01*
X167132000Y-74298000D01*
X167132000Y-74318000D01*
G37*
X167132000Y-74318000D02*
X167152000Y-74318000D01*
X167152000Y-74481928D01*
X167119990Y-74481928D01*
X167119990Y-74298000D01*
X167132000Y-74298000D01*
X167132000Y-74318000D01*
G36*
X168011726Y-73061875D02*
G01*
X167967023Y-73209243D01*
X167951928Y-73362500D01*
X167951928Y-73657500D01*
X167967023Y-73810757D01*
X168002848Y-73928857D01*
X167973102Y-73934774D01*
X167928846Y-73953106D01*
X167914502Y-73905820D01*
X167855537Y-73795506D01*
X167776185Y-73698815D01*
X167679494Y-73619463D01*
X167569180Y-73560498D01*
X167519403Y-73545398D01*
X168021830Y-73042972D01*
X168011726Y-73061875D01*
G37*
X168011726Y-73061875D02*
X167967023Y-73209243D01*
X167951928Y-73362500D01*
X167951928Y-73657500D01*
X167967023Y-73810757D01*
X168002848Y-73928857D01*
X167973102Y-73934774D01*
X167928846Y-73953106D01*
X167914502Y-73905820D01*
X167855537Y-73795506D01*
X167776185Y-73698815D01*
X167679494Y-73619463D01*
X167569180Y-73560498D01*
X167519403Y-73545398D01*
X168021830Y-73042972D01*
X168011726Y-73061875D01*
G36*
X156865820Y-70324502D02*
G01*
X156985518Y-70360812D01*
X157110000Y-70373072D01*
X157716987Y-70373072D01*
X157715000Y-70383061D01*
X157715000Y-70586939D01*
X157716987Y-70596928D01*
X157110000Y-70596928D01*
X156985518Y-70609188D01*
X156865820Y-70645498D01*
X156845000Y-70656627D01*
X156824180Y-70645498D01*
X156704482Y-70609188D01*
X156580000Y-70596928D01*
X156495750Y-70600000D01*
X156337000Y-70758750D01*
X156337000Y-72308000D01*
X156357000Y-72308000D01*
X156357000Y-72562000D01*
X156337000Y-72562000D01*
X156337000Y-72582000D01*
X156083000Y-72582000D01*
X156083000Y-72562000D01*
X155067000Y-72562000D01*
X155067000Y-72582000D01*
X154813000Y-72582000D01*
X154813000Y-72562000D01*
X154793000Y-72562000D01*
X154793000Y-72308000D01*
X154813000Y-72308000D01*
X154813000Y-72288000D01*
X155067000Y-72288000D01*
X155067000Y-72308000D01*
X156083000Y-72308000D01*
X156083000Y-70758750D01*
X155964413Y-70640163D01*
X155975000Y-70586939D01*
X155975000Y-70383061D01*
X155973013Y-70373072D01*
X156580000Y-70373072D01*
X156704482Y-70360812D01*
X156824180Y-70324502D01*
X156845000Y-70313373D01*
X156865820Y-70324502D01*
G37*
X156865820Y-70324502D02*
X156985518Y-70360812D01*
X157110000Y-70373072D01*
X157716987Y-70373072D01*
X157715000Y-70383061D01*
X157715000Y-70586939D01*
X157716987Y-70596928D01*
X157110000Y-70596928D01*
X156985518Y-70609188D01*
X156865820Y-70645498D01*
X156845000Y-70656627D01*
X156824180Y-70645498D01*
X156704482Y-70609188D01*
X156580000Y-70596928D01*
X156495750Y-70600000D01*
X156337000Y-70758750D01*
X156337000Y-72308000D01*
X156357000Y-72308000D01*
X156357000Y-72562000D01*
X156337000Y-72562000D01*
X156337000Y-72582000D01*
X156083000Y-72582000D01*
X156083000Y-72562000D01*
X155067000Y-72562000D01*
X155067000Y-72582000D01*
X154813000Y-72582000D01*
X154813000Y-72562000D01*
X154793000Y-72562000D01*
X154793000Y-72308000D01*
X154813000Y-72308000D01*
X154813000Y-72288000D01*
X155067000Y-72288000D01*
X155067000Y-72308000D01*
X156083000Y-72308000D01*
X156083000Y-70758750D01*
X155964413Y-70640163D01*
X155975000Y-70586939D01*
X155975000Y-70383061D01*
X155973013Y-70373072D01*
X156580000Y-70373072D01*
X156704482Y-70360812D01*
X156824180Y-70324502D01*
X156845000Y-70313373D01*
X156865820Y-70324502D01*
%TD*%
M02*
